<svg width="37" height="71" viewBox="0 0 37 71" fill="none" xmlns="http://www.w3.org/2000/svg">
<path d="M23.6132 31.9237C26.1906 31.994 10.5398 40.2253 10.2529 50.7472C9.96603 61.2692 13.1216 71.5121 2.87684 69.8881C0.299393 69.8179 0.795528 57.614 1.0824 47.0921C1.36927 36.5701 21.0357 31.8535 23.6132 31.9237Z" fill="#4682B4"/>
<path d="M6.25842 1.28531C8.83586 1.35558 10.7116 4.3879 10.4247 14.9098C10.1378 25.4317 13.2934 35.6747 3.04865 34.0507C0.471207 33.9804 0.967342 21.7766 1.25422 11.2547C1.54109 0.732729 3.68097 1.21503 6.25842 1.28531Z" fill="#4682B4"/>
<path d="M30.6215 0.561752C33.1989 0.632024 35.0746 3.66434 34.7878 14.1863C34.5009 24.7082 37.8697 70.9448 27.6249 69.3208C25.0475 69.2505 25.3304 21.053 25.6173 10.5311C25.9041 0.00917416 28.044 0.491479 30.6215 0.561752Z" fill="#4682B4"/>
</svg>
