<svg width="186" height="40" viewBox="0 0 186 40" fill="none" xmlns="http://www.w3.org/2000/svg">
<rect width="185.984" height="40" rx="12" fill="#007BFF"/>
<g clip-path="url(#clip0_1_147)">
<path fill-rule="evenodd" clip-rule="evenodd" d="M32.6922 16.4328L28.3172 12.0578C28.1999 11.9406 28.0408 11.8749 27.875 11.875H20.375C19.6846 11.875 19.125 12.4346 19.125 13.125V26.875C19.125 27.5654 19.6846 28.125 20.375 28.125H31.625C32.3154 28.125 32.875 27.5654 32.875 26.875V16.875C32.8751 16.7092 32.8094 16.5501 32.6922 16.4328ZM28.5 14.0086L30.7414 16.25H28.5V14.0086ZM31.625 26.875H20.375V13.125H27.25V16.875C27.25 17.2202 27.5298 17.5 27.875 17.5H31.625V26.875ZM28.3172 20.8078C28.5614 21.052 28.5614 21.448 28.3172 21.6922C28.073 21.9364 27.677 21.9364 27.4328 21.6922L26.625 20.8836V24.375C26.625 24.7202 26.3452 25 26 25C25.6548 25 25.375 24.7202 25.375 24.375V20.8836L24.5672 21.6922C24.323 21.9364 23.927 21.9364 23.6828 21.6922C23.4386 21.448 23.4386 21.052 23.6828 20.8078L25.5578 18.9328C25.675 18.8155 25.8341 18.7495 26 18.7495C26.1659 18.7495 26.325 18.8155 26.4422 18.9328L28.3172 20.8078Z" fill="white"/>
</g>
<g clip-path="url(#clip1_1_147)">
<rect width="125.984" height="21" transform="translate(44 9.5)" fill="#007BFF"/>
<path d="M51.174 15.3182H53.3267V21.9304C53.3267 22.6728 53.1494 23.3224 52.7947 23.8793C52.4434 24.4361 51.9512 24.8703 51.3182 25.1818C50.6851 25.4901 49.9477 25.6442 49.1058 25.6442C48.2607 25.6442 47.5215 25.4901 46.8885 25.1818C46.2554 24.8703 45.7633 24.4361 45.4119 23.8793C45.0606 23.3224 44.8849 22.6728 44.8849 21.9304V15.3182H47.0376V21.7464C47.0376 22.1342 47.1222 22.4789 47.2912 22.7805C47.4635 23.0821 47.7055 23.3191 48.017 23.4915C48.3286 23.6638 48.6915 23.75 49.1058 23.75C49.5234 23.75 49.8864 23.6638 50.1946 23.4915C50.5062 23.3191 50.7464 23.0821 50.9155 22.7805C51.0878 22.4789 51.174 22.1342 51.174 21.7464V15.3182ZM55.2681 28.3636V17.8636H57.3561V19.1463H57.4506C57.5434 18.9408 57.6776 18.732 57.8533 18.5199C58.0323 18.3045 58.2643 18.1255 58.5493 17.983C58.8377 17.8371 59.1956 17.7642 59.6232 17.7642C60.18 17.7642 60.6937 17.91 61.1644 18.2017C61.635 18.4901 62.0112 18.9259 62.2929 19.5092C62.5746 20.0893 62.7155 20.8168 62.7155 21.6918C62.7155 22.5436 62.578 23.2628 62.3029 23.8494C62.0311 24.4328 61.6599 24.8752 61.1892 25.1768C60.7219 25.4751 60.1982 25.6243 59.6182 25.6243C59.2072 25.6243 58.8575 25.5563 58.5692 25.4205C58.2842 25.2846 58.0505 25.1139 57.8682 24.9084C57.6859 24.6996 57.5467 24.4891 57.4506 24.277H57.386V28.3636H55.2681ZM57.3412 21.6818C57.3412 22.1359 57.4042 22.532 57.5301 22.87C57.6561 23.2081 57.8384 23.4716 58.077 23.6605C58.3156 23.8461 58.6057 23.9389 58.947 23.9389C59.2917 23.9389 59.5834 23.8445 59.822 23.6555C60.0607 23.4633 60.2413 23.1982 60.3639 22.8601C60.4899 22.5187 60.5529 22.1259 60.5529 21.6818C60.5529 21.241 60.4915 20.8532 60.3689 20.5185C60.2463 20.1837 60.0656 19.9219 59.827 19.733C59.5884 19.544 59.295 19.4496 58.947 19.4496C58.6023 19.4496 58.3107 19.5407 58.072 19.723C57.8367 19.9053 57.6561 20.1638 57.5301 20.4986C57.4042 20.8333 57.3412 21.2277 57.3412 21.6818ZM66.4553 15.3182V25.5H64.3374V15.3182H66.4553ZM71.8122 25.6491C71.0399 25.6491 70.3721 25.4851 69.8086 25.157C69.2485 24.8255 68.816 24.3648 68.511 23.7749C68.2061 23.1816 68.0536 22.4938 68.0536 21.7116C68.0536 20.9228 68.2061 20.2334 68.511 19.6435C68.816 19.0502 69.2485 18.5895 69.8086 18.2614C70.3721 17.9299 71.0399 17.7642 71.8122 17.7642C72.5844 17.7642 73.2506 17.9299 73.8108 18.2614C74.3742 18.5895 74.8084 19.0502 75.1133 19.6435C75.4182 20.2334 75.5707 20.9228 75.5707 21.7116C75.5707 22.4938 75.4182 23.1816 75.1133 23.7749C74.8084 24.3648 74.3742 24.8255 73.8108 25.157C73.2506 25.4851 72.5844 25.6491 71.8122 25.6491ZM71.8221 24.0085C72.1734 24.0085 72.4668 23.9091 72.7021 23.7102C72.9374 23.508 73.1147 23.233 73.234 22.8849C73.3567 22.5369 73.418 22.1409 73.418 21.6967C73.418 21.2526 73.3567 20.8565 73.234 20.5085C73.1147 20.1605 72.9374 19.8854 72.7021 19.6832C72.4668 19.4811 72.1734 19.38 71.8221 19.38C71.4675 19.38 71.1692 19.4811 70.9272 19.6832C70.6886 19.8854 70.508 20.1605 70.3853 20.5085C70.266 20.8565 70.2063 21.2526 70.2063 21.6967C70.2063 22.1409 70.266 22.5369 70.3853 22.8849C70.508 23.233 70.6886 23.508 70.9272 23.7102C71.1692 23.9091 71.4675 24.0085 71.8221 24.0085ZM79.3354 25.6442C78.8482 25.6442 78.414 25.5597 78.0328 25.3906C77.6517 25.2183 77.3501 24.9647 77.128 24.63C76.9092 24.2919 76.7999 23.871 76.7999 23.3672C76.7999 22.9429 76.8778 22.5866 77.0335 22.2983C77.1893 22.0099 77.4014 21.7779 77.6699 21.6023C77.9384 21.4266 78.2433 21.294 78.5847 21.2045C78.9294 21.1151 79.2906 21.0521 79.6685 21.0156C80.1126 20.9692 80.4706 20.9261 80.7423 20.8864C81.0141 20.8433 81.2113 20.7803 81.334 20.6974C81.4566 20.6146 81.5179 20.492 81.5179 20.3295V20.2997C81.5179 19.9848 81.4185 19.7412 81.2196 19.5689C81.0241 19.3965 80.7457 19.3104 80.3844 19.3104C80.0032 19.3104 79.7 19.3949 79.4746 19.5639C79.2492 19.7296 79.1001 19.9384 79.0271 20.1903L77.0683 20.0312C77.1678 19.5672 77.3633 19.1662 77.655 18.8281C77.9467 18.4867 78.3228 18.2249 78.7835 18.0426C79.2476 17.857 79.7845 17.7642 80.3943 17.7642C80.8186 17.7642 81.2246 17.8139 81.6124 17.9134C82.0035 18.0128 82.3498 18.1669 82.6514 18.3757C82.9564 18.5845 83.1967 18.853 83.3723 19.1811C83.548 19.5059 83.6358 19.8954 83.6358 20.3494V25.5H81.6273V24.4411H81.5676C81.445 24.6797 81.2809 24.8902 81.0754 25.0724C80.8699 25.2514 80.623 25.3923 80.3347 25.495C80.0463 25.5945 79.7132 25.6442 79.3354 25.6442ZM79.9419 24.1825C80.2535 24.1825 80.5286 24.1212 80.7672 23.9986C81.0058 23.8726 81.1931 23.7036 81.329 23.4915C81.4649 23.2794 81.5328 23.0391 81.5328 22.7706V21.9602C81.4665 22.0033 81.3754 22.0431 81.2594 22.0795C81.1467 22.1127 81.0191 22.1442 80.8766 22.174C80.7341 22.2005 80.5915 22.2254 80.449 22.2486C80.3065 22.2685 80.1772 22.2867 80.0612 22.3033C79.8127 22.3397 79.5956 22.3977 79.41 22.4773C79.2244 22.5568 79.0802 22.6645 78.9774 22.8004C78.8747 22.933 78.8233 23.0987 78.8233 23.2976C78.8233 23.5859 78.9277 23.8063 79.1365 23.9588C79.3486 24.108 79.6171 24.1825 79.9419 24.1825ZM88.3028 25.6243C87.7228 25.6243 87.1975 25.4751 86.7268 25.1768C86.2595 24.8752 85.8883 24.4328 85.6132 23.8494C85.3414 23.2628 85.2055 22.5436 85.2055 21.6918C85.2055 20.8168 85.3464 20.0893 85.6281 19.5092C85.9098 18.9259 86.2844 18.4901 86.7517 18.2017C87.2223 17.91 87.7377 17.7642 88.2979 17.7642C88.7254 17.7642 89.0817 17.8371 89.3668 17.983C89.6551 18.1255 89.8871 18.3045 90.0628 18.5199C90.2418 18.732 90.3777 18.9408 90.4705 19.1463H90.5351V15.3182H92.648V25.5H90.5599V24.277H90.4705C90.371 24.4891 90.2302 24.6996 90.0479 24.9084C89.8689 25.1139 89.6352 25.2846 89.3469 25.4205C89.0618 25.5563 88.7138 25.6243 88.3028 25.6243ZM88.974 23.9389C89.3154 23.9389 89.6037 23.8461 89.8391 23.6605C90.0777 23.4716 90.26 23.2081 90.3859 22.87C90.5152 22.532 90.5798 22.1359 90.5798 21.6818C90.5798 21.2277 90.5169 20.8333 90.3909 20.4986C90.265 20.1638 90.0827 19.9053 89.844 19.723C89.6054 19.5407 89.3154 19.4496 88.974 19.4496C88.626 19.4496 88.3327 19.544 88.094 19.733C87.8554 19.9219 87.6748 20.1837 87.5521 20.5185C87.4295 20.8532 87.3682 21.241 87.3682 21.6818C87.3682 22.1259 87.4295 22.5187 87.5521 22.8601C87.6781 23.1982 87.8587 23.4633 88.094 23.6555C88.3327 23.8445 88.626 23.9389 88.974 23.9389ZM101.699 25.5H98.0893V15.3182H101.729C102.753 15.3182 103.634 15.522 104.373 15.9297C105.113 16.334 105.681 16.9157 106.079 17.6747C106.48 18.4337 106.68 19.3419 106.68 20.3991C106.68 21.4598 106.48 22.3712 106.079 23.1335C105.681 23.8958 105.109 24.4808 104.363 24.8885C103.621 25.2962 102.733 25.5 101.699 25.5ZM100.242 23.6555H101.609C102.246 23.6555 102.781 23.5429 103.215 23.3175C103.653 23.0888 103.981 22.7358 104.199 22.2585C104.421 21.7779 104.533 21.1581 104.533 20.3991C104.533 19.6468 104.421 19.032 104.199 18.5547C103.981 18.0774 103.654 17.7261 103.22 17.5007C102.786 17.2753 102.251 17.1626 101.614 17.1626H100.242V23.6555ZM111.895 25.6491C111.123 25.6491 110.455 25.4851 109.892 25.157C109.332 24.8255 108.899 24.3648 108.594 23.7749C108.289 23.1816 108.137 22.4938 108.137 21.7116C108.137 20.9228 108.289 20.2334 108.594 19.6435C108.899 19.0502 109.332 18.5895 109.892 18.2614C110.455 17.9299 111.123 17.7642 111.895 17.7642C112.668 17.7642 113.334 17.9299 113.894 18.2614C114.457 18.5895 114.892 19.0502 115.197 19.6435C115.501 20.2334 115.654 20.9228 115.654 21.7116C115.654 22.4938 115.501 23.1816 115.197 23.7749C114.892 24.3648 114.457 24.8255 113.894 25.157C113.334 25.4851 112.668 25.6491 111.895 25.6491ZM111.905 24.0085C112.257 24.0085 112.55 23.9091 112.785 23.7102C113.021 23.508 113.198 23.233 113.317 22.8849C113.44 22.5369 113.501 22.1409 113.501 21.6967C113.501 21.2526 113.44 20.8565 113.317 20.5085C113.198 20.1605 113.021 19.8854 112.785 19.6832C112.55 19.4811 112.257 19.38 111.905 19.38C111.551 19.38 111.252 19.4811 111.01 19.6832C110.772 19.8854 110.591 20.1605 110.469 20.5085C110.349 20.8565 110.29 21.2526 110.29 21.6967C110.29 22.1409 110.349 22.5369 110.469 22.8849C110.591 23.233 110.772 23.508 111.01 23.7102C111.252 23.9091 111.551 24.0085 111.905 24.0085ZM120.691 25.6491C119.909 25.6491 119.236 25.4834 118.673 25.152C118.113 24.8172 117.682 24.3532 117.38 23.7599C117.082 23.1667 116.933 22.4839 116.933 21.7116C116.933 20.9295 117.084 20.2434 117.385 19.6534C117.69 19.0601 118.123 18.5978 118.683 18.2663C119.243 17.9316 119.909 17.7642 120.681 17.7642C121.348 17.7642 121.931 17.8852 122.431 18.1271C122.932 18.3691 123.328 18.7088 123.62 19.1463C123.911 19.5838 124.072 20.0975 124.102 20.6875H122.103C122.047 20.3063 121.898 19.9998 121.656 19.7678C121.417 19.5324 121.104 19.4148 120.716 19.4148C120.388 19.4148 120.101 19.5043 119.856 19.6832C119.614 19.8589 119.425 20.1158 119.289 20.4538C119.153 20.7919 119.085 21.2012 119.085 21.6818C119.085 22.169 119.152 22.5833 119.284 22.9247C119.42 23.2661 119.611 23.5263 119.856 23.7053C120.101 23.8842 120.388 23.9737 120.716 23.9737C120.958 23.9737 121.175 23.924 121.367 23.8246C121.563 23.7251 121.724 23.581 121.85 23.392C121.979 23.1998 122.063 22.9695 122.103 22.701H124.102C124.069 23.2843 123.91 23.7981 123.625 24.2422C123.343 24.683 122.953 25.0277 122.456 25.2763C121.959 25.5249 121.371 25.6491 120.691 25.6491ZM130.565 22.2486V17.8636H132.683V25.5H130.649V24.1129H130.57C130.397 24.5604 130.111 24.92 129.71 25.1918C129.312 25.4635 128.826 25.5994 128.253 25.5994C127.743 25.5994 127.294 25.4834 126.906 25.2514C126.518 25.0194 126.215 24.6896 125.996 24.2621C125.781 23.8345 125.671 23.3224 125.668 22.7259V17.8636H127.786V22.348C127.789 22.7988 127.91 23.1551 128.149 23.4169C128.387 23.6787 128.707 23.8097 129.108 23.8097C129.363 23.8097 129.602 23.7517 129.824 23.6357C130.046 23.5163 130.225 23.3407 130.361 23.1087C130.5 22.8767 130.568 22.59 130.565 22.2486ZM134.587 25.5V17.8636H136.605V19.2109H136.695C136.854 18.7635 137.119 18.4105 137.49 18.152C137.861 17.8935 138.306 17.7642 138.823 17.7642C139.346 17.7642 139.792 17.8951 140.16 18.157C140.528 18.4155 140.773 18.7668 140.896 19.2109H140.975C141.131 18.7734 141.413 18.4238 141.82 18.1619C142.231 17.8968 142.717 17.7642 143.277 17.7642C143.99 17.7642 144.568 17.9912 145.012 18.4453C145.46 18.8961 145.683 19.5357 145.683 20.3643V25.5H143.57V20.782C143.57 20.3577 143.458 20.0395 143.232 19.8274C143.007 19.6153 142.725 19.5092 142.387 19.5092C142.003 19.5092 141.703 19.6319 141.487 19.8771C141.272 20.1191 141.164 20.4389 141.164 20.8366V25.5H139.111V20.7372C139.111 20.3627 139.003 20.0644 138.788 19.8423C138.576 19.6203 138.296 19.5092 137.948 19.5092C137.712 19.5092 137.5 19.5689 137.311 19.6882C137.126 19.8042 136.978 19.9683 136.869 20.1804C136.759 20.3892 136.705 20.6345 136.705 20.9162V25.5H134.587ZM151.046 25.6491C150.261 25.6491 149.585 25.4901 149.018 25.1719C148.455 24.8504 148.02 24.3963 147.715 23.8097C147.411 23.2197 147.258 22.522 147.258 21.7166C147.258 20.9311 147.411 20.2417 147.715 19.6484C148.02 19.0552 148.45 18.5928 149.003 18.2614C149.56 17.9299 150.213 17.7642 150.962 17.7642C151.466 17.7642 151.935 17.8454 152.369 18.0078C152.806 18.1669 153.188 18.4072 153.512 18.7287C153.84 19.0502 154.096 19.4545 154.278 19.9418C154.46 20.4257 154.551 20.9924 154.551 21.642V22.2237H148.103V20.9112H152.558C152.558 20.6063 152.492 20.3362 152.359 20.1009C152.226 19.8655 152.042 19.6816 151.807 19.549C151.575 19.4131 151.305 19.3452 150.997 19.3452C150.675 19.3452 150.39 19.4197 150.142 19.5689C149.896 19.7147 149.704 19.9119 149.565 20.1605C149.426 20.4058 149.354 20.6792 149.351 20.9808V22.2287C149.351 22.6065 149.421 22.933 149.56 23.2081C149.702 23.4832 149.903 23.6953 150.162 23.8445C150.42 23.9936 150.727 24.0682 151.081 24.0682C151.317 24.0682 151.532 24.035 151.728 23.9688C151.923 23.9025 152.09 23.803 152.23 23.6705C152.369 23.5379 152.475 23.3755 152.548 23.1832L154.507 23.3125C154.407 23.7831 154.203 24.1941 153.895 24.5455C153.59 24.8935 153.196 25.1652 152.712 25.3608C152.231 25.553 151.676 25.6491 151.046 25.6491ZM158.261 21.0852V25.5H156.144V17.8636H158.162V19.2109H158.251C158.421 18.7668 158.704 18.4155 159.102 18.157C159.499 17.8951 159.982 17.7642 160.548 17.7642C161.079 17.7642 161.541 17.8802 161.935 18.1122C162.33 18.3442 162.636 18.6757 162.855 19.1065C163.074 19.5341 163.183 20.0445 163.183 20.6378V25.5H161.065V21.0156C161.069 20.5483 160.949 20.1837 160.707 19.9219C160.466 19.6567 160.132 19.5241 159.708 19.5241C159.423 19.5241 159.171 19.5855 158.952 19.7081C158.737 19.8307 158.568 20.0097 158.445 20.245C158.326 20.477 158.265 20.7571 158.261 21.0852ZM169.124 17.8636V19.4545H164.526V17.8636H169.124ZM165.57 16.0341H167.688V23.1534C167.688 23.349 167.717 23.5014 167.777 23.6108C167.837 23.7169 167.92 23.7914 168.026 23.8345C168.135 23.8776 168.261 23.8991 168.403 23.8991C168.503 23.8991 168.602 23.8909 168.702 23.8743C168.801 23.8544 168.877 23.8395 168.93 23.8295L169.264 25.4055C169.157 25.4387 169.008 25.4768 168.816 25.5199C168.624 25.5663 168.39 25.5945 168.115 25.6044C167.605 25.6243 167.157 25.5563 166.773 25.4006C166.392 25.2448 166.095 25.0028 165.883 24.6747C165.671 24.3466 165.566 23.9323 165.57 23.4318V16.0341Z" fill="white"/>
</g>
<defs>
<clipPath id="clip0_1_147">
<rect width="20" height="20" fill="white" transform="translate(16 10)"/>
</clipPath>
<clipPath id="clip1_1_147">
<rect width="125.984" height="21" fill="white" transform="translate(44 9.5)"/>
</clipPath>
</defs>
</svg>
