<svg width="212" height="56" viewBox="0 0 212 56" fill="none" xmlns="http://www.w3.org/2000/svg">
<rect x="0.693585" y="0.693585" width="210.388" height="54.0996" rx="8.55422" stroke="black" stroke-width="1.38717"/>
<path d="M67.0461 6.01123V50.8631" stroke="black" stroke-width="1.38717"/>
<path d="M115.427 23.7803V25.3666H109.624V29.6247H114.968V31.1901H109.624V36.9302H107.704V23.7803H115.427ZM117.571 36.9302V27.1199H119.407V36.9302H117.571ZM118.489 24.5943C118.169 24.5943 117.891 24.49 117.654 24.2812C117.431 24.0586 117.32 23.7872 117.32 23.4672C117.32 23.1471 117.431 22.8758 117.654 22.6531C117.891 22.4305 118.169 22.3192 118.489 22.3192C118.795 22.3192 119.066 22.4305 119.303 22.6531C119.54 22.8758 119.658 23.1471 119.658 23.4672C119.658 23.7872 119.54 24.0586 119.303 24.2812C119.066 24.49 118.795 24.5943 118.489 24.5943ZM122.498 36.9302V22.1105H124.294V36.9302H122.498ZM132.381 28.4975H129.501V34.1958C129.501 34.6829 129.619 35.0099 129.856 35.1769C130.106 35.3438 130.426 35.4273 130.816 35.4273C131.094 35.4273 131.4 35.3995 131.734 35.3438C132.068 35.2743 132.36 35.1977 132.611 35.1142L132.903 36.5127C132.625 36.624 132.27 36.7214 131.838 36.8049C131.407 36.8884 130.955 36.9302 130.482 36.9302C129.508 36.9302 128.798 36.7214 128.353 36.304C127.907 35.8726 127.685 35.2534 127.685 34.4463V28.4975H126.224V27.1199H127.685V23.989H129.501V27.1199H132.381V28.4975ZM143.178 32.2338H136.144V32.3173C136.144 33.4027 136.436 34.2376 137.02 34.822C137.619 35.4065 138.426 35.6987 139.442 35.6987C139.97 35.6987 140.436 35.6569 140.84 35.5734C141.257 35.4899 141.71 35.3508 142.197 35.156L142.572 36.5127C142.169 36.6936 141.689 36.8397 141.132 36.951C140.59 37.0624 140.005 37.118 139.379 37.118C138.669 37.118 138.001 37.0206 137.375 36.8258C136.763 36.631 136.22 36.3318 135.747 35.9283C135.274 35.5108 134.898 34.982 134.62 34.3419C134.356 33.7018 134.223 32.9365 134.223 32.0459C134.223 31.2806 134.335 30.5848 134.557 29.9586C134.794 29.3325 135.121 28.8037 135.538 28.3723C135.956 27.927 136.457 27.5861 137.041 27.3495C137.64 27.0991 138.307 26.9738 139.045 26.9738C139.671 26.9738 140.235 27.0782 140.736 27.2869C141.251 27.4956 141.689 27.7879 142.051 28.1636C142.412 28.5393 142.691 28.9915 142.886 29.5203C143.08 30.0491 143.178 30.6335 143.178 31.2736V32.2338ZM141.278 30.9188C141.278 30.557 141.23 30.223 141.132 29.9169C141.049 29.5968 140.91 29.3185 140.715 29.082C140.534 28.8454 140.297 28.6576 140.005 28.5184C139.713 28.3793 139.358 28.3097 138.941 28.3097C138.175 28.3097 137.549 28.5532 137.062 29.0402C136.589 29.5273 136.297 30.1674 136.185 30.9605L141.278 30.9188ZM145.305 36.9302V27.1199H146.682L146.996 29.082C147.232 28.4558 147.622 27.9479 148.164 27.5583C148.707 27.1686 149.333 26.9738 150.043 26.9738C150.405 26.9738 150.704 27.0017 150.941 27.0573C151.177 27.113 151.393 27.1826 151.588 27.266L151.233 28.8733C151.066 28.7898 150.878 28.7202 150.669 28.6645C150.474 28.6089 150.238 28.581 149.96 28.581C149.556 28.581 149.18 28.6506 148.832 28.7898C148.498 28.9289 148.199 29.1376 147.935 29.4159C147.684 29.6943 147.483 30.0421 147.33 30.4596C147.19 30.8631 147.121 31.3293 147.121 31.8581V36.9302H145.305Z" fill="black"/>
<path fill-rule="evenodd" clip-rule="evenodd" d="M27.9755 12.9924C28.0336 12.9925 28.0919 12.9926 28.1501 12.9926C28.2085 12.9926 28.2667 12.9925 28.3249 12.9924C29.0168 12.9912 29.6969 12.9901 30.3027 13.1524C31.9219 13.5863 33.1864 14.8509 33.6202 16.47C33.7826 17.0758 33.7815 17.7559 33.7803 18.4479C33.7803 18.5061 33.7801 18.5643 33.7801 18.6226H48.7935C49.83 18.6226 50.6701 19.4628 50.6701 20.4993C50.6701 21.5357 49.83 22.3759 48.7935 22.3759H33.7801C33.7801 22.4342 33.7803 22.4924 33.7803 22.5506C33.7815 23.2426 33.7826 23.9227 33.6202 24.5286C33.1864 26.1476 31.9219 27.4123 30.3027 27.846C29.6969 28.0083 29.0168 28.0072 28.3249 28.0061C28.2667 28.0061 28.2085 28.0059 28.1501 28.0059C28.0919 28.0059 28.0336 28.0061 27.9755 28.0061C27.2835 28.0072 26.6034 28.0083 25.9975 27.846C24.3785 27.4123 23.1138 26.1476 22.68 24.5286C22.5177 23.9227 22.5188 23.2426 22.52 22.5506C22.52 22.4924 22.5201 22.4342 22.5201 22.3759H18.7668C17.7304 22.3759 16.8901 21.5357 16.8901 20.4993C16.8901 19.4628 17.7304 18.6226 18.7668 18.6226H22.5201C22.5201 18.5643 22.52 18.5061 22.52 18.4479C22.5188 17.7559 22.5177 17.0758 22.68 16.47C23.1138 14.8509 24.3785 13.5863 25.9975 13.1524C26.6034 12.9901 27.2835 12.9912 27.9755 12.9924ZM27.2092 16.756C27.009 16.7651 26.9619 16.7798 26.9689 16.7779C26.6451 16.8647 26.3922 17.1176 26.3055 17.4414C26.3039 17.448 26.2915 17.5056 26.2835 17.6816C26.2739 17.8919 26.2735 18.1693 26.2735 18.6226V22.3759C26.2735 22.8292 26.2739 23.1066 26.2835 23.3169C26.2926 23.517 26.3073 23.5641 26.3055 23.5571C26.3922 23.8809 26.6451 24.1339 26.9689 24.2206C26.9619 24.2187 27.009 24.2334 27.2092 24.2425C27.4194 24.2521 27.6968 24.2526 28.1501 24.2526C28.6035 24.2526 28.8809 24.2521 29.0911 24.2425C29.2912 24.2334 29.3383 24.2187 29.3313 24.2206C29.6552 24.1339 29.908 23.8809 29.9949 23.5571C29.993 23.5641 30.0077 23.517 30.0167 23.3169C30.0264 23.1066 30.0268 22.8292 30.0268 22.3759V18.6226C30.0268 18.1693 30.0264 17.8919 30.0167 17.6816C30.0077 17.4815 29.993 17.4344 29.9949 17.4414M27.2092 16.756C27.4194 16.7464 27.6968 16.7459 28.1501 16.7459L27.2092 16.756ZM28.1501 16.7459C28.6035 16.7459 28.8809 16.7464 29.0911 16.756L28.1501 16.7459ZM29.0911 16.756C29.2671 16.764 29.3247 16.7763 29.3313 16.7779L29.0911 16.756ZM39.2354 28.0057C39.2936 28.0059 39.3518 28.0059 39.4101 28.0059C39.4685 28.0059 39.5267 28.0059 39.5849 28.0057C40.2768 28.0046 40.9569 28.0035 41.5627 28.1658C43.1819 28.5997 44.4464 29.8642 44.8803 31.4834C45.0426 32.0892 45.0415 32.7693 45.0403 33.4612C45.0403 33.5194 45.0401 33.5775 45.0401 33.6359H48.7935C49.83 33.6359 50.6701 34.4761 50.6701 35.5126C50.6701 36.5491 49.83 37.3892 48.7935 37.3892H45.0401C45.0401 37.4476 45.0403 37.5058 45.0403 37.564C45.0415 38.2559 45.0426 38.936 44.8803 39.542C44.4464 41.161 43.1819 42.4257 41.5627 42.8594C40.9569 43.0217 40.2768 43.0206 39.5849 43.0194C39.5267 43.0194 39.4685 43.0192 39.4101 43.0192C39.3518 43.0192 39.2936 43.0194 39.2354 43.0194C38.5435 43.0206 37.8634 43.0217 37.2576 42.8594C35.6384 42.4257 34.3739 41.161 33.94 39.542C33.7777 38.936 33.7788 38.2559 33.78 37.564C33.78 37.5058 33.7801 37.4476 33.7801 37.3892H18.7668C17.7304 37.3892 16.8901 36.5491 16.8901 35.5126C16.8901 34.4761 17.7304 33.6359 18.7668 33.6359H33.7801C33.7801 33.5777 33.78 33.5194 33.78 33.4612C33.7788 32.7693 33.7777 32.0892 33.94 31.4834C34.3739 29.8642 35.6384 28.5997 37.2576 28.1658C37.8634 28.0035 38.5435 28.0046 39.2354 28.0057ZM38.4692 31.7694C38.2691 31.7784 38.222 31.793 38.229 31.7911C37.9051 31.878 37.6523 32.131 37.5654 32.4547C37.5673 32.4478 37.5526 32.4949 37.5436 32.6949C37.5339 32.9051 37.5335 33.1827 37.5335 33.6359V37.3892C37.5335 37.8426 37.5339 38.12 37.5436 38.3302C37.5526 38.5304 37.5673 38.5775 37.5654 38.5704C37.6523 38.8943 37.9051 39.1471 38.229 39.234C38.222 39.2321 38.2691 39.2468 38.4692 39.256C38.6794 39.2655 38.9567 39.2659 39.4101 39.2659C39.8635 39.2659 40.1409 39.2655 40.3511 39.256C40.5512 39.2468 40.5983 39.2321 40.5913 39.234C40.9152 39.1471 41.168 38.8943 41.2549 38.5704C41.253 38.5775 41.2677 38.5304 41.2767 38.3302C41.2864 38.12 41.2868 37.8426 41.2868 37.3892V33.6359C41.2868 33.1827 41.2864 32.9051 41.2767 32.6949C41.2677 32.4949 41.253 32.4478 41.2549 32.4547C41.168 32.131 40.9152 31.878 40.5913 31.7911C40.5983 31.793 40.5512 31.7784 40.3511 31.7694C40.1409 31.7596 39.8635 31.7592 39.4101 31.7592C38.9567 31.7592 38.6794 31.7596 38.4692 31.7694Z" fill="#0F1729"/>
</svg>
