<svg width="585" height="507" viewBox="0 0 585 507" fill="none" xmlns="http://www.w3.org/2000/svg">
<path d="M579.621 32.1218H424.015V156.516H579.621V32.1218Z" stroke="#330033" stroke-width="0.5" stroke-miterlimit="10" stroke-linecap="round" stroke-linejoin="round"/>
<path d="M568.549 145.461V43.1788L435.085 43.1788V145.461L568.549 145.461Z" fill="white"/>
<path d="M549.653 108.976L538.25 103.741L526.849 108.976V77.6518H549.653V108.976Z" fill="#4682B4"/>
<path d="M538.25 87.5469C548.655 87.5469 557.091 79.124 557.091 68.7338C557.091 58.3435 548.655 49.9206 538.25 49.9206C527.845 49.9206 519.41 58.3435 519.41 68.7338C519.41 79.124 527.845 87.5469 538.25 87.5469Z" fill="#4682B4"/>
<path d="M538.25 83.7823C546.573 83.7823 553.321 77.0449 553.321 68.7337C553.321 60.4226 546.573 53.6852 538.25 53.6852C529.927 53.6852 523.18 60.4226 523.18 68.7337C523.18 77.0449 529.927 83.7823 538.25 83.7823Z" stroke="white" stroke-miterlimit="10"/>
<path d="M446.532 75.6451H495.036" stroke="#330033" stroke-width="0.5" stroke-miterlimit="10" stroke-linecap="round" stroke-linejoin="round"/>
<path d="M446.532 82.4446H495.036" stroke="#330033" stroke-width="0.5" stroke-miterlimit="10" stroke-linecap="round" stroke-linejoin="round"/>
<path d="M446.532 89.2426H495.036" stroke="#330033" stroke-width="0.5" stroke-miterlimit="10" stroke-linecap="round" stroke-linejoin="round"/>
<path d="M446.532 96.0421H495.036" stroke="#330033" stroke-width="0.5" stroke-miterlimit="10" stroke-linecap="round" stroke-linejoin="round"/>
<path d="M446.532 102.84H495.036" stroke="#330033" stroke-width="0.5" stroke-miterlimit="10" stroke-linecap="round" stroke-linejoin="round"/>
<path d="M500.023 56.7352H446.532V67.6572H500.023V56.7352Z" fill="#4682B4"/>
<path d="M249.777 10.8763H55.4016V260.806H249.777V10.8763Z" fill="white"/>
<path d="M266.523 260.806H38.6566V270.394H266.523V260.806Z" fill="#4682B4"/>
<path d="M152.59 10.8763V260.806" stroke="#330033" stroke-width="0.5" stroke-miterlimit="10" stroke-linecap="round" stroke-linejoin="round"/>
<path d="M55.6618 69.3695H249.777" stroke="#330033" stroke-width="0.5" stroke-miterlimit="10" stroke-linecap="round" stroke-linejoin="round"/>
<path d="M55.6618 135.841H249.777" stroke="#330033" stroke-width="0.5" stroke-miterlimit="10" stroke-linecap="round" stroke-linejoin="round"/>
<path d="M55.6618 202.312H249.777" stroke="#330033" stroke-width="0.5" stroke-miterlimit="10" stroke-linecap="round" stroke-linejoin="round"/>
<path d="M266.523 0H38.6566V3.15788H266.523V0Z" fill="#4682B4"/>
<path d="M126.229 0H38.6566V321.587H126.229V0Z" fill="#4682B4"/>
<path d="M4.84546 349.91H579.621" stroke="#330033" stroke-width="0.5" stroke-miterlimit="10" stroke-linecap="round" stroke-linejoin="round"/>
<path d="M484.349 384.056V450.112" stroke="black" stroke-width="0.5" stroke-miterlimit="10" stroke-linecap="round" stroke-linejoin="round"/>
<path d="M547.393 466.523C534.677 441.194 484.349 450.112 484.349 450.112C484.349 450.112 434.021 441.194 421.305 466.523" stroke="black" stroke-width="0.5" stroke-miterlimit="10" stroke-linecap="round" stroke-linejoin="round"/>
<path d="M517.532 471.302C510.839 439.225 484.349 450.518 484.349 450.518C484.349 450.518 457.858 439.225 451.166 471.302" stroke="black" stroke-width="0.5" stroke-miterlimit="10" stroke-linecap="round" stroke-linejoin="round"/>
<path d="M508.699 477.297C508.699 482.169 512.654 486.119 517.533 486.119C522.412 486.119 526.367 482.169 526.367 477.297C526.367 472.426 522.412 468.476 517.533 468.476C512.654 468.476 508.699 472.426 508.699 477.297Z" fill="#4682B4"/>
<path d="M459.999 477.297C459.999 482.169 456.043 486.119 451.165 486.119C446.286 486.119 442.331 482.169 442.331 477.297C442.331 472.426 446.286 468.476 451.165 468.476C456.043 468.476 459.999 472.426 459.999 477.297Z" fill="#4682B4"/>
<path d="M428.817 470.481C428.817 475.353 424.862 479.303 419.983 479.303C415.104 479.303 411.149 475.353 411.149 470.481C411.149 465.61 415.104 461.66 419.983 461.66C424.862 461.66 428.817 465.61 428.817 470.481Z" fill="#4682B4"/>
<path d="M539.88 470.481C539.88 475.353 543.836 479.303 548.714 479.303C553.593 479.303 557.549 475.353 557.549 470.481C557.549 465.61 553.593 461.66 548.714 461.66C543.836 461.66 539.88 465.61 539.88 470.481Z" fill="#4682B4"/>
<path d="M517.467 389.334H455.246C448.08 389.334 442.27 383.533 442.27 376.377C442.27 369.221 448.08 363.419 455.246 363.419H517.467C524.633 363.419 530.443 369.221 530.443 376.377C530.443 383.533 524.633 389.334 517.467 389.334Z" fill="#4682B4"/>
<path d="M584.465 235.413C584.465 283.676 577.157 342.811 534.407 342.811C491.656 342.811 484.349 283.676 484.349 235.413C484.349 187.149 506.761 183.296 534.407 183.296C562.053 183.296 584.465 187.149 584.465 235.413Z" fill="#4682B4"/>
<path d="M557.8 360.627C557.8 372.478 526.184 375.488 487.185 375.488C448.185 375.488 416.569 372.478 416.569 360.627C416.569 348.777 448.185 332.571 487.185 332.571C526.184 332.573 557.8 348.777 557.8 360.627Z" fill="#4682B4"/>
<path d="M498.693 101.172C480.22 96.1582 464.087 108.038 458.741 112.131C450.319 118.578 445.785 129.524 444.454 139.904C443.259 149.219 444.418 158.649 445.201 168.008C445.986 177.367 446.372 186.968 443.709 195.975C447.813 197.647 452.311 198.341 456.728 197.984C457.456 194.689 458.184 191.395 458.914 188.099C459.023 191.625 459.134 195.152 459.243 198.681C469.51 201.078 480.02 202.99 490.604 202.795C495.707 202.701 500.598 201.526 505.615 201.164C510.787 200.791 523.326 199.576 523.326 199.576C523.326 199.576 529.943 195.149 533.554 171.979C537.165 148.808 535.532 136.044 531.889 128.211C528.246 120.379 519.127 120.488 519.127 120.488C519.127 120.488 517.165 106.186 498.693 101.172Z" fill="#38322E"/>
<path d="M356.99 470.471C359.151 472.384 360.312 475.571 359.307 478.274C364.328 478.482 369.381 477.639 374.081 475.865C374.037 475.474 373.991 475.078 373.944 474.662C373.9 474.269 373.854 473.866 373.809 473.455C373.139 467.441 372.372 459.708 372.764 456.367C373.313 451.674 373.863 447.411 374.396 443.448L354.285 443.589C354.346 446.367 354.364 448.542 354.323 449.855C354.206 453.653 354.008 457.526 352.647 461.075C351.659 463.653 350.052 465.437 348.173 467.03C347.881 467.278 347.575 467.518 347.272 467.76C347.838 467.698 348.41 467.67 348.976 467.688C351.861 467.77 354.83 468.559 356.99 470.471Z" fill="#B27449"/>
<path d="M374.081 475.865C369.381 477.639 364.328 478.482 359.307 478.274C360.312 475.571 359.151 472.384 356.99 470.472C354.83 468.559 351.861 467.77 348.976 467.685C348.41 467.669 347.838 467.696 347.272 467.757C346.685 468.223 346.087 468.685 345.467 469.148C345.111 469.413 344.753 469.68 344.392 469.952C342.229 471.584 337.923 473.661 333.81 475.677C329.555 477.763 325.507 479.783 324.25 481.178C322.249 483.399 321.388 486.861 324.397 488.473C329.171 491.032 336.311 490.962 341.519 490.241C347.65 489.391 353.575 487.445 359.724 486.696C363.447 486.243 374.422 487.046 374.649 481.414C374.659 481.199 374.607 480.614 374.52 479.781C374.418 478.793 374.261 477.435 374.081 475.865Z" fill="#4682B4"/>
<path d="M322.685 483.829C322.833 484.854 323.417 485.783 324.608 486.42C329.381 488.979 336.521 488.91 341.729 488.187C347.86 487.337 353.785 485.392 359.935 484.642C363.375 484.224 373.007 484.877 374.631 480.537" stroke="black" stroke-width="0.5" stroke-miterlimit="10" stroke-linecap="round" stroke-linejoin="round"/>
<path d="M369.284 467.557C368.742 469.667 367.215 471.502 365.24 472.424" stroke="black" stroke-width="0.5" stroke-miterlimit="10" stroke-linecap="round" stroke-linejoin="round"/>
<path d="M475.499 357.63C451.372 372.54 383.095 360.386 383.095 360.386C383.095 360.386 385.739 365.03 384.908 388.339C384.077 411.694 380.958 457.736 380.958 457.736C380.958 457.736 373.694 460.477 364.346 461.559C354.999 462.641 346.949 457.011 346.949 457.011C346.949 457.011 338.526 365.929 345.564 342.537C352.602 319.145 436.674 311.72 436.674 311.72L476.453 300.035C476.453 300.035 499.627 342.719 475.499 357.63Z" fill="white"/>
<path d="M399.072 476.515C401.392 478.233 402.824 481.306 402.06 484.087C407.08 483.858 412.042 482.579 416.569 480.404C416.49 480.018 416.411 479.627 416.328 479.217C416.249 478.83 416.169 478.432 416.087 478.027C414.896 472.093 413.459 464.457 413.557 461.095C413.696 456.372 413.873 452.077 414.057 448.083L394.034 449.971C394.338 452.734 394.545 454.898 394.619 456.209C394.832 460.003 394.971 463.878 393.927 467.532C393.167 470.185 391.72 472.102 389.988 473.853C389.718 474.126 389.434 474.391 389.153 474.658C389.711 474.547 390.28 474.47 390.844 474.438C393.727 474.269 396.754 474.796 399.072 476.515Z" fill="#B27449"/>
<path d="M416.569 480.403C412.04 482.578 407.08 483.856 402.06 484.086C402.826 481.305 401.392 478.232 399.072 476.514C396.753 474.796 393.727 474.268 390.844 474.434C390.28 474.466 389.712 474.543 389.153 474.654C388.609 475.169 388.054 475.68 387.476 476.194C387.145 476.489 386.811 476.786 386.475 477.09C384.463 478.903 380.354 481.347 376.431 483.713C372.375 486.16 368.518 488.525 367.387 490.023C365.586 492.409 365.031 495.932 368.169 497.277C373.147 499.411 380.254 498.722 385.379 497.55C391.413 496.171 397.146 493.718 403.208 492.438C406.877 491.665 417.881 491.511 417.616 485.879C417.607 485.664 417.506 485.086 417.345 484.263C417.16 483.291 416.884 481.952 416.569 480.403Z" fill="#4682B4"/>
<path d="M366.062 492.802C366.299 493.811 366.962 494.684 368.204 495.216C373.182 497.35 380.289 496.662 385.414 495.49C391.448 494.111 397.18 491.658 403.242 490.378C406.632 489.662 416.285 489.477 417.524 485.01" stroke="black" stroke-width="0.5" stroke-miterlimit="10" stroke-linecap="round" stroke-linejoin="round"/>
<path d="M411.066 472.543C410.709 474.692 409.35 476.653 407.461 477.744" stroke="black" stroke-width="0.5" stroke-miterlimit="10" stroke-linecap="round" stroke-linejoin="round"/>
<path d="M507.302 353.807C484.566 370.757 415.489 364.58 415.489 364.58C415.489 364.58 418.527 368.977 419.73 392.27C420.935 415.608 418.519 462.007 418.519 462.007C418.519 462.007 417.016 467.538 407.798 469.428C398.581 471.319 384.89 467.493 384.89 467.493C384.89 467.493 368.8 371.722 372.98 348.558C377.159 325.395 464.627 311.445 464.627 311.445L503.236 296.349C503.236 296.346 530.04 336.857 507.302 353.807Z" fill="white"/>
<path d="M381.662 447.065C377.202 417.607 370.025 364.934 372.98 348.557C375.86 332.6 418.263 321.015 444.369 315.352" stroke="black" stroke-width="0.5" stroke-miterlimit="10" stroke-linecap="round" stroke-linejoin="round"/>
<path d="M414.446 363.26C410.796 359.747 407.145 356.233 403.496 352.72" stroke="black" stroke-width="0.5" stroke-miterlimit="10" stroke-linecap="round" stroke-linejoin="round"/>
<path d="M448.071 316.276C462.774 319.252 477.207 323.548 491.141 329.098" stroke="black" stroke-width="0.5" stroke-miterlimit="10" stroke-linecap="round" stroke-linejoin="round"/>
<path d="M465.061 202.719C465.061 202.719 456.586 204.561 453.535 207.225C450.485 209.89 433.328 253.674 433.328 253.674C433.328 253.674 427.799 264.715 436.759 269.475C445.719 274.234 452.201 259.195 452.201 259.195L472.79 214.269L465.061 202.719Z" fill="#B27449"/>
<path d="M465.061 202.719C465.061 202.719 456.18 203.66 450.863 208.439C445.544 213.218 434.313 241.572 434.313 241.572C434.313 241.572 446.3 251.308 464.238 250.955C464.238 250.955 486.706 209.566 465.061 202.719Z" fill="white"/>
<path d="M440.382 247.202C439.43 246.739 438.096 246.239 436.489 245.71C430.241 243.656 419.868 241.181 411.678 238.848C407.108 237.546 403.216 236.289 401.105 235.174C399.737 233.822 396.805 230.905 395.201 229.163C391.758 225.426 387.908 221.371 383.403 218.907C380.776 217.471 377.749 216.988 374.79 216.526C373.958 216.396 372.827 216.449 372.623 217.264C372.504 217.74 372.804 218.212 373.118 218.59C375.147 221.022 378.287 222.302 380.381 224.677C380.884 225.248 381.338 226.084 380.278 226.337C379.923 226.421 379.552 226.363 379.192 226.305C375.027 225.629 370.664 224.868 367.351 222.259C366.361 221.479 365.48 220.544 364.374 219.94C363.485 219.455 360.151 218.826 360.192 220.645C359.584 220.682 358.956 220.751 358.428 221.056C357.901 221.362 357.502 221.964 357.615 222.563C357.646 222.729 357.714 222.89 357.707 223.058C357.699 223.254 357.591 223.429 357.508 223.608C357.118 224.446 357.28 225.458 357.709 226.279C358.138 227.099 358.803 227.765 359.461 228.417C359.169 229.199 359.408 230.1 359.877 230.791C360.347 231.482 361.021 232.005 361.684 232.515C363.791 234.137 365.901 235.76 368.008 237.382C369.791 238.753 371.684 239.731 373.71 240.656C376.364 241.867 379.296 242.458 382.185 242.739C384.367 242.951 389.296 243.756 391.47 244.042C392.299 244.151 397.388 247.44 404.015 251.633C414.702 258.395 429.4 267.514 436.761 269.475L437.906 269.971C446.268 272.952 452.204 259.195 452.204 259.195C452.204 259.195 447.817 250.819 440.382 247.202Z" fill="#B27449"/>
<path d="M436.489 245.711C438.095 246.239 439.43 246.74 440.382 247.202C443.681 248.807 446.379 251.35 448.361 253.681" stroke="black" stroke-width="0.5" stroke-miterlimit="10" stroke-linecap="round" stroke-linejoin="round"/>
<path d="M387.726 237.223C384.068 235.42 379.893 234.68 375.838 235.115" stroke="#333333" stroke-width="0.5" stroke-miterlimit="10" stroke-linecap="round" stroke-linejoin="round"/>
<path d="M359.603 228.341C360.926 228.232 362.097 229.12 363.137 229.944C365.362 231.706 367.671 233.396 370.227 234.633" stroke="#333333" stroke-width="0.5" stroke-miterlimit="10" stroke-linecap="round" stroke-linejoin="round"/>
<path d="M358.032 222.859C360.104 223.06 361.798 224.514 363.409 225.828C365.874 227.842 368.482 229.683 371.204 231.332" stroke="#333333" stroke-width="0.5" stroke-miterlimit="10" stroke-linecap="round" stroke-linejoin="round"/>
<path d="M360.658 220.743C362.189 221.186 363.412 222.306 364.645 223.316C366.937 225.194 369.449 226.806 372.113 228.105" stroke="#333333" stroke-width="0.5" stroke-miterlimit="10" stroke-linecap="round" stroke-linejoin="round"/>
<path d="M473.284 198.672C476.221 196.866 478.925 194.403 480.36 190.556C483.182 182.991 480.508 176.91 480.508 176.91L499.967 166.824C499.967 166.824 495.808 188.628 498.333 195.451C498.83 196.791 499.819 197.887 501.09 198.812C496.974 201.309 484.83 208.891 477.095 215.957C477.098 215.957 473.095 207.795 473.284 198.672Z" fill="#B27449"/>
<path d="M448.653 261.526C448.653 261.526 445.157 242.175 446.642 235.055C448.127 227.935 460.307 205.093 465.061 202.72C467.05 201.726 469.559 200.755 472.012 199.412C472.439 199.178 472.864 198.932 473.285 198.674C473.095 207.795 477.098 215.958 477.098 215.958C484.833 208.892 496.976 201.312 501.092 198.813C501.664 199.229 502.285 199.613 502.955 199.964C505.345 201.218 508.246 202.095 510.84 202.865C508.199 207.364 501.407 220.119 502.673 230.378C503.701 238.703 509.716 244.474 509.716 244.474C509.716 244.474 511.1 266.266 511.078 278.069C511.054 290.344 516.604 319.34 516.604 319.34C516.604 319.34 496.286 325.179 464.602 318.786C443.039 314.435 437.161 307.051 437.161 307.051C437.161 307.051 448.95 279.176 448.653 261.526Z" fill="white"/>
<path d="M502.672 230.377C501.405 220.118 508.198 207.362 510.839 202.864C514.126 203.841 516.921 204.648 517.551 205.834C519.127 208.799 521.059 220.37 511.849 240.098C511.129 241.64 510.416 243.09 509.712 244.474C507.338 242.705 503.7 238.702 502.672 230.377Z" fill="#F2B27E"/>
<path d="M472.586 247.896C472.586 247.896 477.022 255.828 487.854 256.664" stroke="black" stroke-width="0.5" stroke-miterlimit="10" stroke-linecap="round" stroke-linejoin="round"/>
<path d="M486.505 284.258C486.505 284.258 473.605 305.397 457.83 302.31" stroke="black" stroke-width="0.5" stroke-miterlimit="10" stroke-linecap="round" stroke-linejoin="round"/>
<path d="M455.271 215.957C451.192 223.154 447.426 231.296 446.642 235.053C446.517 235.653 446.427 236.339 446.368 237.093C446.08 240.732 446.276 244.128 446.773 248.101" stroke="black" stroke-width="0.5" stroke-miterlimit="10" stroke-linecap="round" stroke-linejoin="round"/>
<path opacity="0.7" d="M482.907 191.646C481.827 191.624 480.944 191.345 480.22 190.882C480.265 190.771 480.319 190.669 480.36 190.556C483.182 182.991 480.508 176.91 480.508 176.91L499.967 166.824C499.967 166.824 498.962 172.096 498.24 178.266C495.681 182.51 489.348 191.78 482.907 191.646Z" fill="#B27449"/>
<path d="M519.612 208.591C508.792 203.736 499.628 210.567 500.474 222.781C501.364 235.637 503.872 269.145 503.872 269.145L454.252 284.124C450.233 282.489 446.261 280.672 442.054 279.796C435.167 278.362 427.583 278.854 420.721 280.231C418.321 280.712 415.7 281.529 414.491 283.654C414.335 283.929 414.205 284.224 413.99 284.456C413.743 284.724 413.405 284.888 413.081 285.054C411.076 286.084 410.521 287.419 409.531 289.214C408.795 290.549 408.204 292.5 410.07 293.388C409.131 294.536 410.126 296.4 411.528 296.888C412.93 297.376 414.465 296.952 415.903 296.584C417.917 296.07 419.961 295.669 422.02 295.387C423.15 295.233 424.296 295.112 425.429 295.244C427.739 295.513 429.786 296.79 431.956 297.626C438.029 299.965 444.766 300.443 451.188 299.537C452.55 299.345 454.225 299.297 455.851 299.072L455.854 299.099C455.854 299.099 515.717 294.54 523.657 287.471C531.597 280.401 530.43 213.446 519.612 208.591Z" fill="#B27449"/>
<path d="M503.989 269.164C505.568 269.921 506.997 270.988 508.167 272.289" stroke="black" stroke-width="0.4174" stroke-miterlimit="10" stroke-linecap="round" stroke-linejoin="round"/>
<path d="M414.487 285.163C418.945 283.87 423.511 282.948 428.122 282.409" stroke="#333333" stroke-width="0.5" stroke-miterlimit="10" stroke-linecap="round" stroke-linejoin="round"/>
<path d="M411.036 289.624C415.967 288.007 421.035 286.804 426.167 286.031" stroke="#333333" stroke-width="0.5" stroke-miterlimit="10" stroke-linecap="round" stroke-linejoin="round"/>
<path d="M410.926 293.519C415.662 291.784 420.641 290.705 425.67 290.324" stroke="#333333" stroke-width="0.5" stroke-miterlimit="10" stroke-linecap="round" stroke-linejoin="round"/>
<path d="M509.626 202.5C509.626 202.5 521.937 203.866 529.437 216.125C536.937 228.385 537.164 246.339 537.164 246.339C537.164 246.339 524.701 259.982 495.623 255.898C495.623 255.898 489.345 218.118 509.626 202.5Z" fill="white"/>
<path d="M506.288 256.662C503.016 256.669 499.465 256.438 495.623 255.899C495.623 255.899 493.123 241.766 495.905 227.245" stroke="black" stroke-width="0.5" stroke-miterlimit="10" stroke-linecap="round" stroke-linejoin="round"/>
<path d="M454.089 138.085C447.428 157.96 454.849 182.349 466.542 186.256C482.936 191.735 506.622 179.706 513.283 159.831C519.944 139.957 513.892 117.988 497.498 112.51C481.105 107.032 460.752 118.212 454.089 138.085Z" fill="#B27449"/>
<mask id="mask0_85_24" style="mask-type:luminance" maskUnits="userSpaceOnUse" x="451" y="111" width="65" height="77">
<path d="M454.089 138.085C447.428 157.96 454.849 182.349 466.542 186.256C482.936 191.735 506.622 179.706 513.283 159.831C519.944 139.957 513.892 117.988 497.498 112.51C481.105 107.032 460.752 118.212 454.089 138.085Z" fill="white"/>
</mask>
<g mask="url(#mask0_85_24)">
<path d="M499.602 172.606C497.883 177.735 492.326 180.502 487.189 178.785C482.053 177.069 479.282 171.52 481.001 166.391C482.72 161.263 488.277 158.496 493.413 160.213C498.55 161.928 501.321 167.478 499.602 172.606Z" fill="url(#paint0_radial_85_24)"/>
</g>
<mask id="mask1_85_24" style="mask-type:luminance" maskUnits="userSpaceOnUse" x="451" y="111" width="65" height="77">
<path d="M454.089 138.085C447.428 157.96 454.849 182.349 466.542 186.256C482.936 191.735 506.622 179.706 513.283 159.831C519.944 139.957 513.892 117.988 497.498 112.51C481.105 107.032 460.752 118.212 454.089 138.085Z" fill="white"/>
</mask>
<g mask="url(#mask1_85_24)">
<path d="M460.067 170.265C458.348 175.394 452.791 178.161 447.655 176.444C442.519 174.728 439.748 169.179 441.467 164.05C443.186 158.922 448.743 156.155 453.879 157.871C459.015 159.586 461.785 165.137 460.067 170.265Z" fill="url(#paint1_radial_85_24)"/>
</g>
<path d="M483.34 170.814C483.34 170.814 479.872 178.648 472.64 178.637C465.409 178.628 461.6 171.783 461.6 171.783C461.6 171.783 469.611 170.413 483.34 170.814Z" fill="black"/>
<mask id="mask2_85_24" style="mask-type:luminance" maskUnits="userSpaceOnUse" x="461" y="170" width="23" height="9">
<path d="M483.34 170.814C483.34 170.814 479.872 178.648 472.64 178.637C465.409 178.628 461.6 171.783 461.6 171.783C461.6 171.783 469.611 170.413 483.34 170.814Z" fill="white"/>
</mask>
<g mask="url(#mask2_85_24)">
<path d="M465.251 180.478C466.068 183.788 472.849 184.964 480.397 183.107C487.946 181.249 493.403 177.06 492.585 173.752C491.768 170.442 484.987 169.266 477.438 171.123C469.89 172.981 464.434 177.168 465.251 180.478Z" fill="#D8714C"/>
</g>
<mask id="mask3_85_24" style="mask-type:luminance" maskUnits="userSpaceOnUse" x="461" y="170" width="23" height="9">
<path d="M483.34 170.814C483.34 170.814 479.872 178.648 472.64 178.637C465.409 178.628 461.6 171.783 461.6 171.783C461.6 171.783 469.611 170.413 483.34 170.814Z" fill="white"/>
</mask>
<g mask="url(#mask3_85_24)">
<path d="M484.237 172.178C484.237 172.178 471.114 173.44 466.807 173.183C462.501 172.926 460.28 167.707 460.28 167.707L483.1 166.379L484.237 172.178Z" fill="white"/>
</g>
<path d="M475.403 154.56C474.792 156.383 475.776 158.355 477.602 158.966C479.427 159.575 481.402 158.593 482.014 156.77C482.626 154.947 481.64 152.975 479.815 152.364C477.989 151.753 476.013 152.737 475.403 154.56Z" fill="black"/>
<path d="M456.103 153.298C455.492 155.121 456.476 157.093 458.302 157.704C460.127 158.315 462.102 157.331 462.714 155.508C463.324 153.685 462.34 151.713 460.515 151.102C458.689 150.492 456.715 151.476 456.103 153.298Z" fill="black"/>
<path d="M473.728 147.294C474.964 146.199 476.288 145.292 477.69 144.646C479.097 144.024 480.586 143.677 482.068 143.804C483.553 143.886 485.008 144.398 486.393 145.116C487.785 145.831 489.093 146.774 490.437 147.746C489.547 146.348 488.403 145.098 487.005 144.121C486.322 143.605 485.539 143.231 484.739 142.884C483.918 142.584 483.051 142.386 482.165 142.313C480.384 142.19 478.589 142.698 477.135 143.624C475.681 144.546 474.481 145.811 473.728 147.294Z" fill="#38322E"/>
<path d="M463.875 145.778C463.434 144.614 462.698 143.577 461.799 142.687C460.898 141.803 459.79 141.059 458.515 140.668C457.895 140.467 457.181 140.345 456.472 140.415C455.766 140.491 455.07 140.732 454.504 141.126C453.36 141.907 452.679 143.11 452.473 144.336C453.263 143.385 454.14 142.592 455.098 142.171C456.058 141.742 457.044 141.768 458.083 142.092C459.124 142.39 460.119 142.925 461.078 143.561C462.035 144.208 462.948 144.959 463.875 145.778Z" fill="#38322E"/>
<path d="M483.34 153.204C483.34 153.204 479.431 150.168 475.386 153.753" stroke="black" stroke-width="0.5" stroke-miterlimit="10" stroke-linecap="round" stroke-linejoin="round"/>
<path d="M463.434 152.01C463.434 152.01 460.14 148.876 456.399 152.209" stroke="black" stroke-width="0.5" stroke-miterlimit="10" stroke-linecap="round" stroke-linejoin="round"/>
<path d="M465.949 154.047C466.513 156.036 465.857 158.318 464.322 159.705C463.426 160.515 462.244 161.061 461.646 162.11C461.102 163.062 461.165 164.283 461.632 165.275C462.098 166.268 462.92 167.056 463.83 167.673C463.83 167.673 466.753 168.368 468.852 165.496C470.952 162.624 470.458 157.929 469.44 154.928C468.422 151.925 465.949 154.047 465.949 154.047Z" fill="url(#paint2_linear_85_24)"/>
<path d="M465.949 154.047C466.513 156.036 465.857 158.318 464.322 159.705C463.426 160.515 462.244 161.061 461.646 162.11C461.102 163.062 461.165 164.283 461.632 165.275C462.098 166.268 462.92 167.056 463.83 167.673" stroke="black" stroke-width="0.5" stroke-miterlimit="10" stroke-linecap="round" stroke-linejoin="round"/>
<path d="M474.248 136.163C481.091 138.877 488.261 140.869 494.708 144.412C501.819 148.322 507.886 154.09 512.134 160.981C514.401 159.769 515.97 157.518 516.831 155.103C517.691 152.689 517.914 150.102 518.042 147.544C518.536 137.678 517.498 127.126 511.472 119.278C504.058 109.623 490.206 107.357 478.832 110C470.682 111.895 463.203 116.534 457.905 122.98C456.994 124.087 457.247 125.07 458.114 126.106C460.021 128.388 462.673 130.227 465.194 131.765C468.062 133.515 471.129 134.925 474.248 136.163Z" fill="#38322E"/>
<path d="M508.205 157.4C504.46 162.693 503.33 168.086 507.091 170.739C510.851 173.393 518.078 172.302 521.823 167.008C525.568 161.715 525.556 155.272 521.796 152.62C518.035 149.966 511.95 152.106 508.205 157.4Z" fill="#B27449"/>
<path d="M524.158 155.876C524.158 155.876 516.512 155.045 507.837 166.458" stroke="black" stroke-width="0.5" stroke-miterlimit="10" stroke-linecap="round" stroke-linejoin="round"/>
<path d="M469.755 120.89C479.401 122.713 487.643 128.739 496.666 132.604C508.035 137.474 520.868 138.873 533.021 136.567C533.493 136.477 533.982 136.352 534.407 136.139C533.771 133.03 532.915 130.415 531.889 128.21C531.608 127.606 531.286 127.064 530.947 126.551C527.438 128.439 523.087 129.109 519.021 129.409C515.465 129.672 511.897 129.786 508.332 129.753C504.519 129.717 500.643 129.5 497.05 128.226C494.056 127.165 491.367 125.408 488.75 123.612C483.186 119.79 477.769 115.69 471.729 112.676C468.838 111.233 465.764 110.058 462.616 109.318C461.012 110.409 459.701 111.396 458.743 112.13C455.029 114.974 452.073 118.694 449.811 122.854C452.064 121.7 454.656 121.083 457.185 120.726C461.351 120.139 465.619 120.11 469.755 120.89Z" fill="#38322E"/>
<path d="M410.926 287.199H332.118L312.787 242.833C310.264 237.043 315.025 230.79 321.957 230.79H379.624C383.679 230.79 387.319 233.019 388.795 236.405L410.926 287.199Z" fill="#999999"/>
<path d="M441.136 287.199H338.169V295.204H441.136V287.199Z" fill="#999999"/>
<path d="M407.675 287.199H326.225L306.894 242.833C304.371 237.043 309.132 230.79 316.064 230.79H376.373C380.428 230.79 384.068 233.019 385.544 236.405L407.675 287.199Z" fill="#B2B2B2"/>
<path d="M357.803 259.233C359.239 264.29 357.322 269.093 353.522 269.961C349.72 270.829 345.474 267.435 344.037 262.378C342.601 257.322 344.518 252.518 348.318 251.65C352.12 250.781 356.366 254.176 357.803 259.233Z" fill="white"/>
<path d="M407.675 287.199H326.192V288.157C326.192 292.048 329.352 295.204 333.249 295.204H407.674L407.675 287.199Z" fill="#B2B2B2"/>
<path d="M332.118 287.199H398.699" stroke="black" stroke-width="0.5" stroke-miterlimit="10" stroke-linecap="round" stroke-linejoin="round"/>
<path d="M50.9797 297.348C49.0102 313.767 55.187 330.963 67.1572 342.391" stroke="black" stroke-width="0.5" stroke-miterlimit="10" stroke-linecap="round" stroke-linejoin="round"/>
<path d="M151.356 486.533H155.249L149.377 378.299C152.424 375.928 154.392 372.238 154.392 368.082C154.392 360.926 148.582 355.124 141.416 355.124H54.8023C47.6359 355.124 41.8259 360.926 41.8259 368.082C41.8259 371.418 43.1005 374.452 45.1751 376.748L38.9112 494.925H42.9787L54.1919 381.008C54.3954 381.017 54.596 381.038 54.8023 381.038H63.7028L57.9799 486.533H61.8731L72.5022 381.038H127.209L138.418 494.923H142.486L136.45 381.038H140.729L151.356 486.533Z" fill="#4682B4"/>
<path d="M0 248.227C0 274.114 7.30752 305.831 50.0579 305.831C92.8083 305.831 100.116 274.113 100.116 248.227C100.116 222.339 77.7033 220.273 50.0579 220.273C22.4125 220.274 0 222.34 0 248.227Z" fill="#4682B4"/>
<path d="M28.8578 359.07C28.8578 372.164 59.4912 375.489 97.2814 375.489C135.071 375.489 165.705 372.164 165.705 359.07C165.705 345.975 135.07 335.706 97.2814 335.706C59.4926 335.706 28.8578 345.975 28.8578 359.07Z" fill="#4682B4"/>
<path d="M147.699 188.369C146.632 181.506 143.294 175.08 142.819 168.151C142.194 159.024 146.596 150.226 146.775 141.079C146.938 132.736 143.371 124.388 137.226 118.733C132.655 114.526 126.713 111.865 120.548 111.123C118.556 106.822 114.437 103.056 110.099 101.216C105.595 99.3064 100.64 98.7163 95.7493 98.5504C86.8169 98.2478 77.6106 99.3769 69.7398 103.606C61.8703 107.835 55.5302 115.557 54.6403 124.438C54.1532 129.307 55.2659 134.344 53.9359 139.053C52.6349 143.656 49.1694 147.313 45.5599 150.457C41.949 153.601 38.0199 156.492 35.256 160.399C32.4922 164.306 31.0763 169.591 33.1191 173.916C35.3723 178.684 41.2377 181.262 42.6701 186.335C43.7067 190.01 42.0778 193.859 41.8494 197.67C41.3761 205.568 47.1861 212.792 54.2777 216.32C61.3693 219.85 69.5349 220.406 77.4556 220.642C86.2453 220.904 95.3465 220.792 103.383 217.23C106.439 215.875 109.29 214.039 112.478 213.03C118.371 211.164 124.739 212.297 130.915 212.038C135.847 211.829 141.103 210.495 144.258 206.704C146.049 204.553 146.985 201.808 147.511 199.059C148.186 195.542 148.25 191.909 147.699 188.369Z" fill="#5E4028"/>
<path d="M128.247 163.296C130.9 169.646 133.603 176.281 133.155 183.147C132.562 192.232 125.861 200.608 117.118 203.193" stroke="black" stroke-width="0.5" stroke-miterlimit="10" stroke-linecap="round" stroke-linejoin="round"/>
<path d="M227.491 470.434C225.303 472.316 224.099 475.487 225.065 478.204C220.041 478.341 215 477.427 210.325 475.588C210.375 475.197 210.426 474.801 210.479 474.385C210.529 473.993 210.58 473.591 210.631 473.18C211.387 467.175 212.261 459.456 211.917 456.108C211.434 451.408 210.944 447.139 210.468 443.167L230.574 443.592C230.473 446.368 230.425 448.543 230.447 449.856C230.511 453.655 230.655 457.53 231.965 461.099C232.916 463.69 234.499 465.496 236.355 467.116C236.645 467.368 236.946 467.612 237.247 467.858C236.682 467.789 236.11 467.753 235.544 467.761C232.657 467.804 229.679 468.552 227.491 470.434Z" fill="#F2B27E"/>
<path d="M215.238 467.345C215.752 469.463 217.251 471.32 219.213 472.27" stroke="black" stroke-width="0.5" stroke-miterlimit="10" stroke-linecap="round" stroke-linejoin="round"/>
<path d="M249.577 475.448C245.816 473.54 242.057 471.616 240.096 470.091C239.739 469.814 239.384 469.541 239.032 469.272C238.419 468.801 237.827 468.331 237.247 467.857C236.682 467.788 236.11 467.752 235.544 467.76C232.657 467.804 229.678 468.552 227.491 470.434C225.303 472.316 224.099 475.487 225.065 478.204C220.041 478.341 215 477.427 210.325 475.588C210.123 477.155 209.947 478.511 209.831 479.496C209.789 479.846 209.758 480.14 209.731 480.393C218.417 483.508 229.954 483.907 240.118 486.095C241.826 481.948 245.407 477.909 249.577 475.448Z" fill="#4682B4"/>
<path d="M260.077 481.599C258.84 480.187 254.821 478.11 250.597 475.965C250.258 475.792 249.917 475.619 249.577 475.448C245.407 477.909 241.826 481.949 240.118 486.095C229.954 483.906 218.419 483.508 209.731 480.393C209.695 480.743 209.676 481.002 209.679 481.128C209.827 486.763 220.813 486.114 224.528 486.62C230.666 487.455 236.563 489.485 242.682 490.421C247.88 491.217 255.017 491.385 259.827 488.895C262.858 487.322 262.047 483.849 260.077 481.599Z" fill="white"/>
<path d="M146.809 259.723C146.809 259.723 143.006 225.527 135.272 214.459C127.925 203.942 116.345 233.087 116.345 233.087C116.345 233.087 124.077 270.651 131.678 278.787C139.279 286.923 194.977 289.829 194.977 289.829L200.009 276.283L146.809 259.723Z" fill="#F2B27E"/>
<path d="M146.687 259.758C145.128 260.723 143.76 261.994 142.686 263.478" stroke="black" stroke-width="0.4174" stroke-miterlimit="10" stroke-linecap="round" stroke-linejoin="round"/>
<path d="M231.607 280.503C234.367 281.887 237.126 283.27 239.886 284.653C240.754 285.087 241.637 285.534 242.323 286.218C243.011 286.902 243.483 287.875 243.322 288.831C244.215 289.429 245.122 290.042 245.791 290.881C246.461 291.719 246.87 292.837 246.609 293.878C246.554 294.099 246.47 294.323 246.504 294.548C246.533 294.741 246.647 294.91 246.719 295.092C246.979 295.748 246.656 296.522 246.125 296.986C245.592 297.451 244.892 297.666 244.207 297.843C244.331 298.417 243.901 298.983 243.385 299.265C242.683 299.649 241.828 299.667 241.049 299.482C240.271 299.297 239.552 298.927 238.841 298.559C237.46 297.844 236.076 297.133 234.69 296.424C233.61 295.871 232.522 295.317 231.365 294.944C229.13 294.222 226.749 294.217 224.432 294.425C223.349 294.524 222.269 294.714 221.19 294.72C220.539 294.724 219.642 294.71 219.292 295.415C218.889 296.228 219.601 297.144 220.318 297.698C223.227 299.944 227.087 300.709 229.935 303.031C230.376 303.39 230.822 303.863 230.792 304.431C230.739 305.405 229.464 305.714 228.487 305.75C225.016 305.877 221.461 305.993 218.152 304.936C212.474 303.122 207.194 299.352 202.446 295.856C199.826 293.925 197.418 291.887 194.745 290.206L200.003 276.281C205.199 277.54 210.475 276.956 215.775 277.143C218.664 277.246 221.574 277.352 224.384 278.031C226.901 278.639 229.273 279.334 231.607 280.503Z" fill="#F2B27E"/>
<path d="M243.894 297.621C240.202 294.611 236.097 292.106 231.729 290.199" stroke="#333333" stroke-width="0.5" stroke-miterlimit="10" stroke-linecap="round" stroke-linejoin="round"/>
<path d="M246.075 294.235C241.775 291.176 237.094 288.651 232.174 286.737" stroke="#333333" stroke-width="0.5" stroke-miterlimit="10" stroke-linecap="round" stroke-linejoin="round"/>
<path d="M242.668 288.784C239.198 286.617 235.546 284.743 231.762 283.188" stroke="#333333" stroke-width="0.5" stroke-miterlimit="10" stroke-linecap="round" stroke-linejoin="round"/>
<path d="M119.405 202.719C119.405 202.719 137.055 205.694 142.686 217.751C148.318 229.807 149.698 245.655 149.698 245.655C149.698 245.655 142.686 255.989 118.6 254.611C118.6 254.611 108.507 234.857 119.405 202.719Z" fill="#5BBA9F"/>
<path d="M108.966 357.63C133.094 372.54 201.371 360.386 201.371 360.386C201.371 360.386 198.727 365.03 199.558 388.339C200.389 411.694 210.428 457.736 210.428 457.736C210.428 457.736 210.772 460.477 220.12 461.559C229.467 462.641 233.365 457.011 233.365 457.011C233.365 457.011 245.94 365.929 238.902 342.537C231.864 319.145 147.792 311.72 147.792 311.72L108.013 300.035C108.013 300.035 84.8392 342.719 108.966 357.63Z" fill="#CC9864"/>
<path d="M110.651 308.503C106.46 322.255 103.285 342.884 117.682 351.983C140.257 366.252 207.207 352.487 207.207 352.487C207.207 352.487 204.887 359.592 205.447 381.545C206.007 403.543 216.243 460.887 216.243 460.887" stroke="black" stroke-width="0.5" stroke-miterlimit="10" stroke-linecap="round" stroke-linejoin="round"/>
<path d="M185.394 476.515C183.074 478.233 181.64 481.306 182.406 484.087C177.386 483.858 172.424 482.579 167.897 480.404C167.976 480.018 168.055 479.627 168.138 479.217C168.217 478.83 168.297 478.432 168.379 478.027C169.57 472.093 171.007 464.457 170.909 461.095C170.77 456.372 170.593 452.077 170.409 448.083L190.431 449.971C190.128 452.734 189.921 454.898 189.847 456.209C189.634 460.003 189.495 463.878 190.539 467.532C191.299 470.185 192.746 472.102 194.478 473.853C194.748 474.126 195.03 474.391 195.313 474.658C194.754 474.547 194.186 474.47 193.622 474.438C190.739 474.269 187.712 474.796 185.394 476.515Z" fill="#F2B27E"/>
<path d="M173.399 472.543C173.756 474.692 175.116 476.653 177.004 477.744" stroke="black" stroke-width="0.5" stroke-miterlimit="10" stroke-linecap="round" stroke-linejoin="round"/>
<path d="M207.053 483.124C203.442 480.947 199.834 478.754 197.99 477.091C197.653 476.789 197.32 476.492 196.989 476.196C196.412 475.682 195.855 475.17 195.311 474.655C194.752 474.544 194.185 474.467 193.62 474.435C190.737 474.269 187.712 474.797 185.392 476.515C183.073 478.233 181.64 481.306 182.406 484.087C177.386 483.858 172.424 482.579 167.897 480.404C167.582 481.953 167.308 483.291 167.119 484.267C167.052 484.612 166.999 484.904 166.955 485.154C175.39 488.894 186.866 490.13 196.844 493.055C198.85 489.043 202.716 485.274 207.053 483.124Z" fill="#4682B4"/>
<path d="M217.076 490.024C215.946 488.526 212.088 486.161 208.032 483.714C207.707 483.518 207.38 483.32 207.052 483.124C202.713 485.274 198.848 489.043 196.841 493.053C186.864 490.13 175.387 488.892 166.952 485.152C166.891 485.498 166.852 485.756 166.845 485.882C166.581 491.512 177.585 491.666 181.254 492.441C187.316 493.721 193.049 496.174 199.083 497.553C204.209 498.725 211.316 499.413 216.293 497.28C219.432 495.933 218.877 492.411 217.076 490.024Z" fill="white"/>
<path d="M77.1635 353.807C99.8999 370.757 168.977 364.58 168.977 364.58C168.977 364.58 165.939 368.977 164.736 392.27C163.531 415.608 168.715 462.007 168.715 462.007C168.715 462.007 167.45 467.538 176.668 469.428C185.885 471.319 192.656 467.493 192.656 467.493C192.656 467.493 215.666 371.722 211.486 348.558C207.307 325.395 119.839 311.445 119.839 311.445L81.2297 296.349C81.2297 296.346 54.4272 336.857 77.1635 353.807Z" fill="#CC9864"/>
<path d="M203.196 420.178C208.072 392.48 213.667 360.64 211.486 348.557C208.606 332.6 166.203 321.015 140.097 315.352" stroke="black" stroke-width="0.5" stroke-miterlimit="10" stroke-linecap="round" stroke-linejoin="round"/>
<path d="M170.02 363.26C173.67 359.747 177.321 356.233 180.97 352.72" stroke="black" stroke-width="0.5" stroke-miterlimit="10" stroke-linecap="round" stroke-linejoin="round"/>
<path d="M136.395 316.276C121.692 319.252 107.259 323.548 93.3245 329.098" stroke="black" stroke-width="0.5" stroke-miterlimit="10" stroke-linecap="round" stroke-linejoin="round"/>
<path d="M80.8104 308.765C75.5733 322.155 70.8193 342.479 84.4724 352.657C105.882 368.618 173.693 360.037 173.693 360.037C173.693 360.037 170.833 366.942 169.701 388.874C168.566 410.849 174.354 468.81 174.354 468.81" stroke="black" stroke-width="0.5" stroke-miterlimit="10" stroke-linecap="round" stroke-linejoin="round"/>
<path d="M76.0799 335.706C81.2104 334.893 85.8232 331.861 89.1919 327.913C92.5605 323.964 94.7722 319.147 96.3195 314.195" stroke="black" stroke-width="0.5" stroke-miterlimit="10" stroke-linecap="round" stroke-linejoin="round"/>
<path d="M112.828 206.823C115.009 205.893 116.924 204.121 117.903 202.008C116.223 201.243 114.324 200.434 112.456 199.41C112.029 199.177 111.603 198.931 111.182 198.672C108.245 196.866 105.541 194.403 104.106 190.556C101.284 182.991 103.958 176.91 103.958 176.91L84.4987 166.824C84.4987 166.824 88.6577 188.628 86.1332 195.451C85.6364 196.791 84.6468 197.887 83.3749 198.812C82.9819 199.098 82.5321 199.348 82.092 199.605C87.311 204.543 94.6407 206.689 101.795 207.619C105.495 208.099 109.394 208.285 112.828 206.823Z" fill="#F2B27E"/>
<path d="M135.813 261.526C135.813 261.526 139.309 242.175 137.824 235.055C136.339 227.935 124.159 205.093 119.405 202.72C118.931 202.484 118.426 202.249 117.903 202.01C116.923 204.123 115.009 205.895 112.828 206.825C109.394 208.287 105.497 208.1 101.795 207.621C94.6407 206.692 87.3097 204.544 82.092 199.606C81.8927 199.723 81.7211 199.855 81.5121 199.964C79.1219 201.218 76.221 202.095 73.6274 202.865C76.2681 207.364 83.0621 220.119 81.7944 230.378C80.7661 238.703 74.7512 244.474 74.7512 244.474C74.7512 244.474 73.3672 266.266 73.3894 278.069C73.4129 290.344 67.8631 319.34 67.8631 319.34C67.8631 319.34 88.1816 325.179 119.865 318.786C141.428 314.435 147.306 307.051 147.306 307.051C147.306 307.051 135.517 279.176 135.813 261.526Z" fill="white"/>
<path d="M81.7944 230.377C83.0608 220.118 76.2681 207.362 73.6274 202.864C70.3404 203.841 67.5447 204.648 66.915 205.834C65.3373 208.8 63.4066 220.37 72.6157 240.098C73.3354 241.64 74.0482 243.09 74.7526 244.474C77.1276 242.706 80.7661 238.702 81.7944 230.377Z" fill="#F2B27E"/>
<path d="M111.88 247.896C111.88 247.896 107.444 255.828 96.6115 256.664" stroke="black" stroke-width="0.5" stroke-miterlimit="10" stroke-linecap="round" stroke-linejoin="round"/>
<path d="M97.9609 284.258C97.9609 284.258 110.861 305.397 126.636 302.31" stroke="black" stroke-width="0.5" stroke-miterlimit="10" stroke-linecap="round" stroke-linejoin="round"/>
<path d="M129.195 215.957C133.274 223.154 137.04 231.296 137.824 235.053C137.949 235.653 138.039 236.339 138.098 237.093C138.386 240.732 138.19 244.128 137.693 248.101" stroke="black" stroke-width="0.5" stroke-miterlimit="10" stroke-linecap="round" stroke-linejoin="round"/>
<path opacity="0.7" d="M101.559 191.646C102.639 191.624 103.522 191.345 104.246 190.882C104.201 190.771 104.147 190.669 104.106 190.556C101.284 182.991 103.958 176.91 103.958 176.91L84.4987 166.824C84.4987 166.824 85.5035 172.096 86.226 178.266C88.7836 182.51 95.1182 191.78 101.559 191.646Z" fill="#F2B27E"/>
<path d="M123.707 207.26C122.023 204.944 120.512 203.273 119.405 202.72C118.931 202.484 118.426 202.249 117.903 202.01C116.923 204.123 115.009 205.895 112.828 206.825C109.394 208.287 105.497 208.1 101.795 207.621C94.6407 206.692 87.3096 204.544 82.092 199.606C81.8927 199.723 81.7211 199.855 81.5121 199.964C79.1219 201.218 76.221 202.095 73.6274 202.865C74.4191 204.214 75.5872 206.316 76.7968 208.862C86.3256 212.712 109.883 220.211 123.707 207.26Z" fill="#5BBA9F"/>
<path d="M64.8542 208.591C75.6744 203.736 84.8378 210.567 83.9922 222.781C83.1023 235.637 80.5945 269.145 80.5945 269.145L130.214 284.124C134.233 282.489 138.205 280.672 142.412 279.796C149.299 278.362 156.883 278.854 163.745 280.231C166.145 280.712 168.766 281.529 169.975 283.654C170.131 283.929 170.261 284.224 170.476 284.456C170.723 284.724 171.061 284.888 171.385 285.054C173.39 286.084 173.945 287.419 174.935 289.214C175.671 290.549 176.262 292.5 174.396 293.388C175.335 294.536 174.34 296.4 172.938 296.888C171.536 297.376 170.001 296.952 168.563 296.584C166.549 296.07 164.505 295.669 162.446 295.387C161.316 295.233 160.17 295.112 159.037 295.244C156.727 295.513 154.68 296.79 152.51 297.626C146.437 299.965 139.7 300.443 133.278 299.537C131.916 299.345 130.241 299.297 128.615 299.072L128.612 299.099C128.612 299.099 68.7488 294.54 60.8088 287.471C52.8688 280.401 54.0341 213.446 64.8542 208.591Z" fill="#F2B27E"/>
<path d="M80.4755 269.164C78.8977 269.921 77.4694 270.988 76.2971 272.289" stroke="black" stroke-width="0.4174" stroke-miterlimit="10" stroke-linecap="round" stroke-linejoin="round"/>
<path d="M169.979 285.163C165.521 283.87 160.955 282.948 156.344 282.409" stroke="#333333" stroke-width="0.5" stroke-miterlimit="10" stroke-linecap="round" stroke-linejoin="round"/>
<path d="M173.43 289.624C168.499 288.007 163.431 286.804 158.299 286.031" stroke="#333333" stroke-width="0.5" stroke-miterlimit="10" stroke-linecap="round" stroke-linejoin="round"/>
<path d="M173.54 293.519C168.804 291.784 163.825 290.705 158.796 290.324" stroke="#333333" stroke-width="0.5" stroke-miterlimit="10" stroke-linecap="round" stroke-linejoin="round"/>
<path d="M138.76 280.782C139.963 280.391 141.178 280.053 142.412 279.796C149.299 278.362 156.883 278.854 163.745 280.231C166.145 280.712 168.766 281.529 169.975 283.654C170.131 283.929 170.261 284.224 170.476 284.456C170.723 284.724 171.061 284.888 171.385 285.054C173.008 285.887 173.681 286.923 174.403 288.237" stroke="black" stroke-width="0.4174" stroke-miterlimit="10" stroke-linecap="round" stroke-linejoin="round"/>
<path d="M74.8398 202.5C74.8398 202.5 62.5291 203.866 55.0292 216.125C47.5293 228.385 47.3024 246.339 47.3024 246.339C47.3024 246.339 59.7653 259.982 88.8431 255.898C88.8431 255.898 95.121 218.118 74.8398 202.5Z" fill="#5BBA9F"/>
<path d="M78.178 256.662C81.4498 256.669 85.0011 256.438 88.8431 255.899C88.8431 255.899 91.3426 241.766 88.5594 227.245" stroke="black" stroke-width="0.5" stroke-miterlimit="10" stroke-linecap="round" stroke-linejoin="round"/>
<path d="M131.357 139.293C137.152 159.476 128.655 183.561 116.781 186.961C100.132 191.728 76.9545 178.653 71.1583 158.47C65.3635 138.287 72.3846 116.565 89.0313 111.798C105.681 107.032 125.562 119.11 131.357 139.293Z" fill="#F2B27E"/>
<mask id="mask4_85_24" style="mask-type:luminance" maskUnits="userSpaceOnUse" x="69" y="110" width="65" height="78">
<path d="M131.357 139.293C137.152 159.476 128.655 183.561 116.781 186.961C100.132 191.728 76.9545 178.653 71.1583 158.47C65.3635 138.287 72.3846 116.565 89.0313 111.798C105.681 107.032 125.562 119.11 131.357 139.293Z" fill="white"/>
</mask>
<g mask="url(#mask4_85_24)">
<path d="M84.2925 171.853C85.7886 177.062 91.2291 180.073 96.444 178.579C101.66 177.085 104.676 171.653 103.18 166.445C101.684 161.237 96.2434 158.225 91.0284 159.719C85.8135 161.212 82.7978 166.644 84.2925 171.853Z" fill="url(#paint3_radial_85_24)"/>
</g>
<mask id="mask5_85_24" style="mask-type:luminance" maskUnits="userSpaceOnUse" x="69" y="110" width="65" height="78">
<path d="M131.357 139.293C137.152 159.476 128.655 183.561 116.781 186.961C100.132 191.728 76.9545 178.653 71.1583 158.47C65.3635 138.287 72.3846 116.565 89.0313 111.798C105.681 107.032 125.562 119.11 131.357 139.293Z" fill="white"/>
</mask>
<g mask="url(#mask5_85_24)">
<path d="M123.965 171.238C125.461 176.447 130.901 179.458 136.116 177.964C141.333 176.47 144.348 171.038 142.852 165.83C141.356 160.622 135.916 157.61 130.701 159.104C125.486 160.597 122.469 166.031 123.965 171.238Z" fill="url(#paint4_radial_85_24)"/>
</g>
<path d="M109.351 154.734C109.883 156.586 108.811 158.517 106.957 159.047C105.102 159.578 103.169 158.509 102.637 156.657C102.106 154.805 103.177 152.874 105.032 152.343C106.885 151.813 108.82 152.884 109.351 154.734Z" fill="black"/>
<path d="M128.621 154.311C129.152 156.163 128.081 158.094 126.226 158.625C124.372 159.155 122.438 158.084 121.907 156.234C121.375 154.383 122.448 152.451 124.301 151.921C126.156 151.39 128.089 152.461 128.621 154.311Z" fill="black"/>
<path d="M101.419 153.146C101.419 153.146 105.464 150.279 109.355 154.043" stroke="black" stroke-width="0.5" stroke-miterlimit="10" stroke-linecap="round" stroke-linejoin="round"/>
<path d="M121.395 152.822C121.395 152.822 124.828 149.83 128.427 153.329" stroke="black" stroke-width="0.5" stroke-miterlimit="10" stroke-linecap="round" stroke-linejoin="round"/>
<path d="M118.789 154.749C118.135 156.715 118.692 159.028 120.167 160.483C121.028 161.332 122.188 161.932 122.741 163.007C123.244 163.984 123.126 165.202 122.617 166.174C122.108 167.147 121.249 167.901 120.312 168.477C120.312 168.477 117.356 169.045 115.381 166.079C113.406 163.113 114.107 158.435 115.255 155.476C116.405 152.516 118.789 154.749 118.789 154.749Z" fill="url(#paint5_linear_85_24)"/>
<path d="M118.789 154.749C118.135 156.715 118.692 159.028 120.167 160.483C121.028 161.332 122.188 161.932 122.741 163.007C123.244 163.984 123.126 165.202 122.617 166.174C122.108 167.147 121.249 167.901 120.312 168.477" stroke="black" stroke-width="0.5" stroke-miterlimit="10" stroke-linecap="round" stroke-linejoin="round"/>
<path d="M119.403 176.553C118.447 178.905 115.875 180.083 113.658 179.185C111.441 178.286 110.418 175.651 111.375 173.3C112.331 170.948 116.018 170.12 118.235 171.018C120.452 171.917 120.36 174.203 119.403 176.553Z" fill="black"/>
<mask id="mask6_85_24" style="mask-type:luminance" maskUnits="userSpaceOnUse" x="111" y="170" width="10" height="10">
<path d="M119.403 176.553C118.447 178.905 115.875 180.083 113.658 179.185C111.441 178.286 110.418 175.651 111.375 173.3C112.331 170.948 116.018 170.12 118.235 171.018C120.452 171.917 120.36 174.203 119.403 176.553Z" fill="white"/>
</mask>
<g mask="url(#mask6_85_24)">
<path d="M120.001 182.116C119.176 185.433 112.374 186.599 104.81 184.721C97.2454 182.843 91.7827 178.633 92.6076 175.316C93.4338 172 100.235 170.833 107.8 172.711C115.363 174.589 120.827 178.799 120.001 182.116Z" fill="#D8714C"/>
</g>
<mask id="mask7_85_24" style="mask-type:luminance" maskUnits="userSpaceOnUse" x="111" y="170" width="10" height="10">
<path d="M119.403 176.553C118.447 178.905 115.875 180.083 113.658 179.185C111.441 178.286 110.418 175.651 111.375 173.3C112.331 170.948 116.018 170.12 118.235 171.018C120.452 171.917 120.36 174.203 119.403 176.553Z" fill="white"/>
</mask>
<g mask="url(#mask7_85_24)">
<path d="M102.023 172.047C102.023 172.047 115.179 173.339 119.497 173.089C123.815 172.84 126.052 167.612 126.052 167.612L103.172 166.235L102.023 172.047Z" fill="white"/>
</g>
<path d="M111.298 147.65C110.11 146.502 108.824 145.534 107.45 144.827C106.07 144.143 104.594 143.729 103.105 143.793C101.615 143.808 100.137 144.259 98.7193 144.917C97.2938 145.573 95.9444 146.459 94.5576 147.372C95.5084 146.012 96.7098 144.812 98.1519 143.894C98.8577 143.409 99.6577 143.066 100.473 142.755C101.307 142.49 102.185 142.331 103.075 142.296C104.863 142.251 106.637 142.839 108.05 143.829C109.465 144.816 110.611 146.133 111.298 147.65Z" fill="#5E4028"/>
<path d="M121.227 146.564C121.72 145.418 122.503 144.414 123.44 143.561C124.38 142.715 125.523 142.02 126.816 141.683C127.446 141.507 128.165 141.419 128.871 141.52C129.574 141.626 130.259 141.897 130.81 142.317C131.921 143.149 132.55 144.383 132.702 145.62C131.953 144.635 131.109 143.803 130.169 143.338C129.225 142.867 128.239 142.85 127.185 143.13C126.131 143.383 125.112 143.875 124.124 144.469C123.139 145.074 122.189 145.784 121.227 146.564Z" fill="#5E4028"/>
<path d="M107.765 129.174C105.289 133.403 104.711 138.345 103.494 143.038C102.262 147.79 100.292 152.451 97.0267 156.252C93.7604 160.051 89.0894 162.928 83.9368 163.485C79.955 163.915 75.965 162.972 72.0815 162.037C71.4144 161.876 70.7168 161.7 70.2145 161.256C69.8422 160.926 69.6138 160.479 69.4021 160.041C66.1178 153.264 64.4515 145.795 64.5594 138.345C64.6286 133.554 65.4383 128.729 67.4119 124.314C72.1797 113.649 84.1084 106.203 96.3831 106.23C108.658 106.256 120.551 113.755 125.264 124.441C125.159 124.202 119.882 121.599 115.787 122.882C112.41 123.939 109.452 126.293 107.765 129.174Z" fill="#5E4028"/>
<path d="M76.3484 156.257C79.8651 161.719 80.7592 167.165 76.8784 169.656C72.9977 172.146 65.8133 170.739 62.2966 165.278C58.7799 159.816 59.0746 153.369 62.9554 150.879C66.8361 148.387 72.833 150.796 76.3484 156.257Z" fill="#F2B27E"/>
<path d="M60.449 154.035C60.449 154.035 68.1385 153.539 76.3207 165.34" stroke="black" stroke-width="0.5" stroke-miterlimit="10" stroke-linecap="round" stroke-linejoin="round"/>
<path d="M137.226 118.733C136.313 117.893 135.333 117.133 134.32 116.42C129.591 116.118 124.791 116.317 120.088 116.768C109.366 117.795 98.747 120.038 87.9767 120.224C80.1004 120.361 71.9389 119.297 65.2085 115.209C63.4246 114.126 61.7402 112.799 60.4517 111.175C57.5744 114.642 55.5358 118.729 54.823 123.139C58.5916 126.7 63.4938 129.101 68.609 130.122C75.5747 131.514 82.8739 130.527 89.5725 128.167C93.1183 126.916 96.5229 125.291 100.067 124.036C110.255 120.429 121.831 120.065 131.73 124.401C136.991 126.705 141.587 130.215 146.004 133.919C144.654 128.142 141.598 122.756 137.226 118.733Z" fill="#5E4028"/>
<path d="M497.901 295.204H123.862V309.337H497.901V295.204Z" fill="#CE802C"/>
<path d="M484.349 309.209H137.415V316.276H147.497L138.246 506.268H143.742L160.92 316.276H460.842L478.021 506.268H483.517L474.266 316.276H484.349V309.209Z" fill="#FFB052"/>
<defs>
<radialGradient id="paint0_radial_85_24" cx="0" cy="0" r="1" gradientUnits="userSpaceOnUse" gradientTransform="translate(490.302 169.498) rotate(-161.519) scale(9.80554 9.79421)">
<stop stop-color="#A55D47"/>
<stop offset="1" stop-color="#B27449"/>
</radialGradient>
<radialGradient id="paint1_radial_85_24" cx="0" cy="0" r="1" gradientUnits="userSpaceOnUse" gradientTransform="translate(450.766 167.157) rotate(-161.519) scale(9.80539 9.79407)">
<stop stop-color="#A55D47"/>
<stop offset="1" stop-color="#B27449"/>
</radialGradient>
<linearGradient id="paint2_linear_85_24" x1="462.977" y1="166.564" x2="467.944" y2="158.92" gradientUnits="userSpaceOnUse">
<stop stop-color="#9A5331"/>
<stop offset="1" stop-color="#B27449"/>
</linearGradient>
<radialGradient id="paint3_radial_85_24" cx="0" cy="0" r="1" gradientUnits="userSpaceOnUse" gradientTransform="translate(93.7374 169.149) rotate(-15.9754) scale(9.82365 9.81159)">
<stop stop-color="#E89575"/>
<stop offset="1" stop-color="#F2B27E"/>
</radialGradient>
<radialGradient id="paint4_radial_85_24" cx="0" cy="0" r="1" gradientUnits="userSpaceOnUse" gradientTransform="translate(133.409 168.534) rotate(-15.9754) scale(9.8235 9.81147)">
<stop stop-color="#E89575"/>
<stop offset="1" stop-color="#F2B27E"/>
</radialGradient>
<linearGradient id="paint5_linear_85_24" x1="121.214" y1="167.407" x2="116.577" y2="159.54" gradientUnits="userSpaceOnUse">
<stop stop-color="#DB8965"/>
<stop offset="0.9996" stop-color="#F2B27E"/>
</linearGradient>
</defs>
</svg>
