<svg width="1140" height="1144" viewBox="0 0 1140 1144" fill="none" xmlns="http://www.w3.org/2000/svg">
<path d="M1078.72 1034.86C1070.42 1023.11 1053.21 1026.2 1043.75 1034.22C1042.8 1028.05 1038.49 1022.12 1032.15 1019.06C1023.4 1014.83 1013.21 1017.2 1009.65 1025.35C1006.77 1031.94 1008.2 1039.81 1009.88 1046.91C1011.72 1054.63 1014.19 1062.33 1017.19 1069.81C1018.95 1074.22 1021.15 1081.35 1026.12 1083.68C1030.73 1085.85 1034.96 1083.32 1038.95 1081.94C1044.23 1080.12 1049.52 1078.37 1054.63 1076.22C1063.98 1072.28 1073.25 1067.3 1078.4 1058.73C1082.49 1051.93 1084.02 1042.38 1078.72 1034.86Z" fill="#292827" fill-opacity="0.73"/>
<path d="M980.94 1064.96C973.133 1067.29 967.385 1073.45 965.569 1080.63C955.356 1069.06 935.465 1061.74 924.366 1074.04C917.268 1081.9 917.993 1093.63 922.028 1102.61C927.112 1113.92 937.457 1121.82 948.001 1128.49C953.776 1132.14 959.8 1135.33 965.804 1138.62C970.347 1141.11 975.033 1145.02 980.696 1143.4C986.808 1141.66 990.2 1133.61 992.779 1128.72C997.156 1120.42 1000.94 1111.74 1003.97 1102.91C1006.76 1094.79 1009.33 1085.69 1006.69 1077.21C1003.43 1066.73 991.711 1061.76 980.94 1064.96Z" fill="#292827" fill-opacity="0.73"/>
<path d="M1009.83 979.103C1006.3 967.122 993.631 961.435 981.984 965.102C973.54 967.759 967.326 974.807 965.362 983.014C954.316 969.785 932.805 961.418 920.803 975.474C913.127 984.463 913.911 997.877 918.274 1008.14C923.773 1021.08 934.96 1030.11 946.363 1037.73C952.608 1041.9 959.122 1045.56 965.615 1049.32C970.527 1052.16 975.596 1056.64 981.719 1054.79C988.33 1052.79 991.998 1043.59 994.786 1038C999.52 1028.5 1003.61 1018.58 1006.89 1008.49C1009.91 999.201 1012.69 988.798 1009.83 979.103Z" fill="#292827" fill-opacity="0.73"/>
<path d="M943.311 550.443C944.411 552.575 945.455 554.735 946.492 556.897C948.839 561.785 951.094 566.719 953.331 571.66C955.823 577.164 958.283 582.683 960.707 588.217C957.21 589.512 953.763 590.972 950.389 592.591C947.725 586.645 945.129 580.667 942.601 574.663C940.375 569.373 938.213 564.054 936.199 558.679C935.409 556.571 934.66 554.446 933.966 552.303C933.42 550.615 933.326 550.639 934.803 549.557C936.572 548.26 938.866 547.501 940.993 547.112C941.633 546.995 941.43 546.931 941.978 547.92C942.438 548.753 942.875 549.598 943.311 550.443ZM992.768 588.223C1003.32 590.236 992.801 600.197 987.204 604.747C986.928 604.196 986.66 603.64 986.38 603.09C984.676 599.736 982.927 598.224 979.062 597.933C969.832 597.236 959.76 602.068 952.179 606.847C949.115 608.778 945.944 611.183 943.992 614.291C942.06 617.369 943.349 620.384 944.586 623.431C939.294 624.367 932.714 625.197 928.396 622.209C925.563 620.249 928.148 615.988 929.518 614.045C936.721 603.824 950.585 597.914 961.771 593.522C971.203 589.818 982.524 586.27 992.768 588.223ZM998.581 642.654C1002.42 651.745 1006.16 660.889 1009.73 670.091C1007.15 670.571 1004.6 671.239 1002.1 672.025C1000.83 668.577 999.463 665.155 998.05 661.751C998.908 661.517 999.771 661.318 1000.64 661.179C1002.11 660.945 1001.75 658.901 1000.33 658.951C999.279 658.987 998.198 659.204 997.114 659.512C995.85 656.511 994.563 653.523 993.278 650.54C994.185 650.289 995.098 650.073 996.021 649.927C997.485 649.694 997.129 647.648 995.709 647.699C994.601 647.737 993.46 647.976 992.318 648.31C992.167 647.962 992.016 647.612 991.867 647.263C990.656 644.438 989.458 641.579 988.243 638.719C989.203 638.448 990.17 638.213 991.148 638.058C992.612 637.825 992.256 635.78 990.836 635.829C989.679 635.87 988.485 636.126 987.292 636.486C985.817 633.053 984.296 629.636 982.676 626.28C983.72 625.978 984.77 625.715 985.833 625.546C987.297 625.312 986.941 623.267 985.521 623.317C984.239 623.362 982.912 623.661 981.59 624.087C980.659 622.233 979.703 620.396 978.689 618.601C978.1 617.561 976.502 618.171 976.944 619.336C977.665 621.226 978.437 623.1 979.231 624.967C977.728 625.59 976.27 626.286 974.936 626.883C974.066 627.271 974.411 628.795 975.394 628.546C976.985 628.143 978.56 627.6 980.137 627.077C981.646 630.526 983.23 633.949 984.811 637.371C983.215 638.02 981.663 638.765 980.25 639.395C979.381 639.784 979.724 641.307 980.709 641.058C982.411 640.626 984.095 640.036 985.784 639.478C986.905 641.917 988.014 644.357 989.075 646.809C989.404 647.568 989.724 648.33 990.048 649.091C988.324 649.772 986.644 650.585 985.124 651.264C984.254 651.652 984.598 653.175 985.582 652.926C987.385 652.469 989.168 651.835 990.959 651.25C992.219 654.271 993.451 657.304 994.679 660.34C992.951 661.021 991.268 661.836 989.745 662.516C988.875 662.905 989.219 664.428 990.203 664.179C991.999 663.723 993.774 663.093 995.558 662.509C996.947 665.943 998.344 669.373 999.789 672.781C998.404 673.255 997.031 673.748 995.685 674.259C989.118 676.752 982.67 679.982 976.929 684.102C971.828 673.913 967.07 663.541 962.476 653.118C957.883 642.693 953.553 632.15 949.579 621.473C948.797 619.371 947.721 618.129 949.127 616.243C950.31 614.658 952.061 613.447 953.638 612.291C957.995 609.098 963.007 606.848 968.093 605.102C970.34 604.331 979.477 601.221 981.032 604.236C983.175 608.39 985.197 612.606 987.18 616.837C991.173 625.356 994.918 633.989 998.581 642.654ZM1024.8 675.659C1032.03 678.485 1020.58 687.753 1014.71 691.951C1013.71 689.78 1012.51 687.626 1010.6 686.266C1007.75 684.235 1003.47 684.945 1000.38 685.887C996.674 687.019 991.677 689.068 989.338 692.309C987.012 695.53 988.558 698.907 989.678 702.312C989.742 702.503 989.816 702.693 989.882 702.885C982.659 704.44 967.435 706.691 971.045 697.852C972.607 694.03 976.418 691.103 979.609 688.716C985.091 684.617 991.422 681.687 997.759 679.18C1005.5 676.117 1016.52 672.419 1024.8 675.659ZM1013.82 703.684C1014.21 704.712 1014.57 705.749 1014.92 706.789C1015.56 708.688 1015.37 709.366 1014.11 710.273C1013.93 710.092 1013.74 709.917 1013.54 709.754C1009.64 706.642 1003.35 710.115 1003.28 714.689C1000.89 714.722 999.836 711.227 998.761 709.299C997.137 706.385 995.749 703.368 994.6 700.237C994.183 699.102 993.787 697.893 993.475 696.723C993.047 695.12 996.068 693.573 996.957 693.048C998.977 691.857 1001.26 691.023 1003.54 690.535C1008.64 689.447 1009.59 693.522 1011.3 697.441C1012.2 699.497 1013.03 701.586 1013.82 703.684ZM1012.95 719.592C1014.24 722.617 1015.54 725.643 1016.83 728.669C1019.35 734.536 1021.85 740.406 1024.36 746.279C1029.47 758.275 1034.61 770.263 1039.6 782.316C1040.16 784.953 1037.92 780.776 1037.65 780.181C1037.03 778.838 1036.43 777.491 1035.82 776.146C1034.4 773.004 1033 769.856 1031.6 766.71C1029.01 760.891 1026.41 755.071 1023.83 749.249C1022.49 746.242 1007.83 714.906 1008.64 714.445C1011.17 713.021 1012.29 718.052 1012.95 719.592ZM916.168 552.267C920.552 545.624 929.888 541.912 936.952 539.164C942.439 537.029 950.156 534.345 956.117 536.164C960.472 537.493 951.701 544.127 947.473 547.041C946.864 545.906 946.242 544.78 945.583 543.672C944.051 541.092 940.495 541.745 938.097 542.343C934.603 543.215 931.218 545.06 928.849 547.793C927.197 549.7 928.401 552.332 929.045 554.377C929.112 554.589 929.185 554.8 929.253 555.013C924.238 556.197 912.107 558.42 916.168 552.267ZM949.907 551.812C955.664 548.153 968.545 538.714 960.297 532.321C957.753 530.349 953.999 530.337 950.961 530.425C945.035 530.596 939.086 532.606 933.618 534.733C925.3 537.97 912.058 543.834 909.867 553.675C909.07 557.257 911.838 560.094 914.984 561.117C919.997 562.746 925.894 561.461 930.998 560.067C932.419 563.943 933.983 567.771 935.541 571.583C938.757 579.451 942.131 587.261 945.614 595.016C942.377 596.762 939.227 598.661 936.199 600.732C930.985 604.296 925.932 608.749 923.076 614.476C920.971 618.698 921.633 623.411 925.233 626.512C930.462 631.017 940.037 629.655 946.533 628.498C953.223 646.042 960.905 663.225 969.058 680.131C970.239 682.58 971.437 685.023 972.657 687.454C969.186 690.508 966.132 694.293 965.192 698.881C964.237 703.54 967.526 707.226 971.658 708.703C977.921 710.942 985.547 709.519 991.944 707.896C993.438 711.036 995.223 714.078 997.048 716.932C999.114 720.165 1001.57 720.65 1004.76 719.883C1005.75 722.16 1006.98 724.403 1007.93 726.547C1009.78 730.727 1011.63 734.906 1013.48 739.084C1017.27 747.644 1021.07 756.2 1024.88 764.751C1026.68 768.793 1028.48 772.835 1030.29 776.872C1031.62 779.829 1032.82 784.898 1035.45 786.98C1040.01 790.6 1046.26 786.824 1044.77 781.053C1044.76 781.051 1044.76 781.05 1044.76 781.049C1044.73 780.834 1044.68 780.613 1044.58 780.386C1037.51 763.294 1030.18 746.311 1022.88 729.315C1021.2 725.389 1019.51 721.463 1017.82 717.538C1017.46 716.684 1017.13 715.782 1016.78 714.889C1020.06 712.774 1021.23 710.347 1020.34 706.471C1019.6 703.22 1018.27 700.015 1016.91 696.913C1024.34 691.921 1039.47 679.833 1029.07 671.954C1025.66 669.37 1020.78 669.225 1016.71 669.316C1016.2 669.328 1015.7 669.372 1015.19 669.404C1011.45 659.732 1007.53 650.132 1003.5 640.58C999.848 631.911 996.058 623.297 992.075 614.775C991.271 613.057 990.451 611.345 989.624 609.638C996.959 603.907 1010.19 590.908 997.59 584.253C993.585 582.136 988.403 582.256 984.028 582.53C977.828 582.919 971.686 584.479 965.759 586.443C962.595 579.21 959.373 572.001 956.074 564.827C954.069 560.465 952.035 556.116 949.907 551.812Z" fill="#292827"/>
<path d="M960.499 642.411C963.326 651.011 967.022 659.265 971.189 667.295C971.775 668.423 973.604 667.659 973.015 666.525C968.855 658.487 965.337 650.185 962.068 641.75C961.666 640.713 960.161 641.384 960.499 642.411Z" fill="#292827"/>
<path d="M941.379 566.497C943.056 571.747 945.019 577.069 947.257 582.107C947.737 583.187 949.257 582.495 948.917 581.408C947.271 576.147 945.235 570.853 943.027 565.802C942.557 564.728 941.034 565.417 941.379 566.497Z" fill="#292827"/>
<path d="M995.936 698.65C996.865 702.314 998.454 705.896 999.905 709.38C1000.42 710.622 1002.25 709.823 1001.81 708.578C1000.58 705.101 999.399 701.435 997.674 698.171C997.226 697.323 995.666 697.586 995.936 698.65Z" fill="#292827"/>
<path d="M169.675 863.112C168.623 865.015 167.536 866.897 166.441 868.775C160.512 878.943 154.245 888.919 147.9 898.832C140.844 909.859 133.628 920.79 126.139 931.528C123.082 935.911 119.968 940.257 116.734 944.51C113.079 949.315 109.452 953.31 102.957 952.372C97.4781 951.582 92.0752 948.359 87.2808 945.793C80.6847 942.263 74.264 938.4 67.9326 934.418C62.2765 930.861 56.6804 927.179 51.3118 923.2C49.3558 921.749 46.8553 920.078 46.9211 917.366C46.9762 915.075 48.3947 912.725 49.7895 910.653C50.3251 911.409 50.8721 912.137 51.4202 912.825C55.4875 917.933 60.4152 922.363 65.681 926.197C72.0902 930.864 79.1555 934.62 86.418 937.767C92.3051 940.318 99.5242 943.967 105.989 941.602C110.521 939.943 113.537 934.983 116.311 931.292C119.471 927.086 122.533 922.805 125.571 918.51C132.863 908.199 139.964 897.75 146.916 887.206C151.326 880.518 155.704 873.795 159.793 866.904C161.34 864.298 163.192 861.559 163.702 858.545C164.426 854.275 158.584 851.326 155.225 849.498C155.695 848.488 156.11 847.458 156.525 846.516C156.582 846.385 156.642 846.249 156.701 846.115C159.79 847.76 162.85 849.456 165.837 851.283C167.774 852.466 170.821 853.938 172.071 855.941C173.277 857.876 170.662 861.329 169.675 863.112ZM48.4417 897.825C56.2414 901.767 65.0428 897.348 70.4967 890.761C76.7857 883.164 82.4573 875.037 88.1131 866.966C92.9362 860.083 97.6264 853.106 102.464 846.233C104.851 842.841 107.05 838.857 110.171 836.097C111.623 834.813 112.932 834.571 114.662 835.159C117.078 835.98 119.424 837.037 121.784 838.024C121.728 838.917 121.845 839.795 122.334 840.627C123.418 842.468 125.903 843.237 127.731 844.164C129.752 845.187 131.79 846.178 133.828 847.166C138.128 849.251 142.448 851.467 146.936 853.12C148.622 853.719 151.188 854.823 152.757 853.296C152.878 853.178 152.986 853.045 153.1 852.918C155.467 854.134 159.566 856.141 159.65 858.322C159.711 859.895 157.674 862.506 156.88 863.869C154.566 867.84 152.102 871.723 149.626 875.594C142.949 886.037 136.022 896.322 128.987 906.525C122.924 915.317 116.818 924.113 110.258 932.544C108.559 934.727 106.759 936.828 104.184 937.968C100.951 939.4 96.8131 937.386 93.8064 936.32C85.702 933.448 77.9787 929.534 70.803 924.808C65.8303 921.532 61.4117 917.732 57.31 913.429C53.7297 909.674 48.7524 903.616 48.4417 897.825ZM91.1805 848.993C95.2718 843.261 99.4963 837.613 103.764 832.013C105.593 829.614 108.425 826.534 111.765 826.921C115.721 827.378 119.782 829.22 123.513 830.757C123.191 831.815 122.9 832.882 122.629 833.951C119.416 832.454 115.67 830.411 112.324 830.708C108.144 831.08 105.229 835.285 103.066 838.371C98.7483 844.528 94.447 850.693 90.1765 856.883C84.5147 865.089 78.8054 873.268 72.8122 881.237C69.5449 885.582 65.1107 891.535 59.9585 894.13C70.2415 879 80.5539 863.883 91.1805 848.993ZM129.922 827.229C131.947 827.925 134.536 829.801 136.81 829.164C138.537 828.679 139.671 827.748 140.633 826.236C142.211 823.757 141.392 819.837 145.286 819.638C146.775 819.562 148.274 820.273 149.607 820.836C152.572 822.088 151.524 825.207 150.313 827.288C149.301 829.026 147.344 830.942 147.887 833.189C148.3 834.895 149.347 835.957 150.851 836.805C152.498 837.736 155.095 838.015 154.472 840.419C153.912 842.583 152.939 844.674 152.018 846.702C151.598 847.626 151.148 848.537 150.669 849.432C150.119 850.459 149.209 849.647 148.223 849.292C141.855 846.927 135.7 843.687 129.648 840.62C128.771 840.176 125.778 839.056 125.807 838.498C125.903 836.658 126.578 834.769 127.086 833.014C127.329 832.17 128.523 826.748 129.922 827.229ZM172.458 850.847C170.077 848.993 167.48 847.379 164.818 845.877C164.872 845.112 164.803 844.336 164.449 843.636C164.015 842.781 161.468 840.304 162.412 839.457C164.276 837.786 165.338 834.921 164.078 832.529C162.737 829.982 160.497 828.683 157.629 828.642C155.338 828.61 153.937 829.724 152.626 831.076C153.653 829.476 154.607 828.043 155.242 826.227C156.151 823.627 155.477 819.729 153.021 818.143C150.149 816.287 146.711 815.193 143.303 815.823C139.974 816.438 138.505 819.352 137.792 822.323C136.595 827.313 132.982 823.333 129.839 822.991C127.137 822.696 125.767 824.698 124.854 826.937C120.857 825.332 116.713 823.628 112.466 822.945C109.335 822.441 106.347 823.921 103.954 825.848C100.605 828.546 98.3051 832.655 95.7309 836.033C93.735 838.652 91.7483 841.269 89.818 843.937C77.6475 860.758 66.023 877.985 54.3708 895.166C54.3174 895.244 54.2844 895.322 54.2436 895.401C52.1994 895.251 50.0813 894.429 47.9093 892.675C46.934 891.888 45.1709 892.493 44.8717 893.705C43.7687 898.166 45.1886 902.808 47.4497 906.927C44.9256 910.769 41.5611 915.796 43.4337 920.45C45.2091 924.861 50.4415 927.644 54.1688 930.225C64.8483 937.621 76.0131 944.491 87.5373 950.491C91.9884 952.808 96.5786 955.13 101.514 956.197C107.165 957.42 112.09 955.717 116.115 951.641C119.679 948.031 122.567 943.533 125.52 939.427C129.048 934.522 132.472 929.543 135.86 924.541C146.345 909.053 156.456 893.291 166.109 877.27C169.526 871.601 173.534 865.767 175.968 859.583C177.456 855.806 175.227 853.001 172.458 850.847Z" fill="#292827"/>
<path d="M144.975 828.421C146.134 828.343 146.886 827.657 147.438 826.678C148.014 825.654 148.158 824.598 147.462 823.599C146.918 822.818 145.823 822.528 144.956 822.834C144.388 823.034 144.479 823.903 144.978 824.118C144.87 824.226 144.769 824.343 144.676 824.468C144.377 824.867 144.294 825.464 144.381 826.015C144.327 826.002 144.27 825.988 144.223 825.979C144.02 825.944 143.58 826.031 143.567 826.034C143.206 826.104 142.985 826.411 142.943 826.759C142.804 827.908 143.976 828.488 144.975 828.421Z" fill="#292827"/>
<path d="M110.274 845.731C114.134 840.909 120.902 847.099 124.603 849.537C127.485 851.435 124.863 854.536 123.788 856.765C122.562 859.312 121.147 861.714 119.467 863.987C117.552 866.577 113.084 864.756 110.671 863.865C107.863 862.829 104.502 860.948 103.318 858.084C102.576 853.885 107.837 848.774 110.274 845.731ZM101.389 858.82C102.966 861.649 106.216 863.48 109.024 864.875C111.845 866.277 115.539 867.881 118.767 867.462C119.845 867.322 120.73 865.999 121.36 865.263C123.017 863.325 124.237 861.039 125.387 858.78C126.686 856.227 129.029 852.678 127.727 849.788C127.262 848.756 126.025 847.994 125.119 847.408C123.091 846.095 120.976 844.897 118.924 843.62C116.348 842.018 113.922 840.643 110.937 842.073C108.378 843.3 106.532 846.715 104.863 848.874C102.865 851.456 100.333 855.019 101.263 858.409C101.272 858.541 101.31 858.678 101.389 858.82Z" fill="#292827"/>
<path d="M132.584 855C138.084 857.973 143.542 861.04 149.061 863.975C149.824 864.381 150.58 863.33 149.827 862.839C144.559 859.41 138.874 856.445 133.153 853.849C132.49 853.549 131.945 854.654 132.584 855Z" fill="#292827"/>
<path d="M128.794 859.08C131.569 860.979 134.679 862.435 137.619 864.065C140.634 865.739 143.601 867.525 146.71 869.022C147.446 869.377 147.962 868.205 147.329 867.768C141.908 864.028 135.537 860.262 129.395 857.864C128.661 857.577 128.167 858.652 128.794 859.08Z" fill="#292827"/>
<path d="M125.918 864C131.778 867.078 137.553 870.384 143.478 873.327C144.251 873.711 145.02 872.684 144.252 872.181C138.691 868.532 132.598 865.48 126.602 862.614C125.811 862.236 125.143 863.594 125.918 864Z" fill="#292827"/>
<path d="M93.8435 869.2C99.4209 873.274 106.329 876.055 112.446 879.249C118.731 882.529 124.974 886.298 131.521 889.022C132.459 889.412 133.142 887.971 132.303 887.438C126.396 883.684 119.807 880.769 113.596 877.543C107.393 874.32 101.088 870.209 94.463 867.946C93.6916 867.682 93.2093 868.737 93.8435 869.2Z" fill="#292827"/>
<path d="M88.5345 876.436C94.2587 880.6 100.666 883.98 106.755 887.58C109.822 889.393 112.889 891.206 115.956 893.019C119.024 894.832 122.113 897.13 125.482 898.321C126.121 898.547 126.825 897.649 126.263 897.151C123.872 895.029 120.837 893.594 118.091 891.972C114.682 889.96 111.274 887.947 107.865 885.934C101.709 882.298 95.5954 878.294 89.1186 875.252C88.4121 874.92 87.9531 876.014 88.5345 876.436Z" fill="#292827"/>
<path d="M81.827 886.556C87.5929 890.35 93.7296 893.62 99.6334 897.198C105.512 900.76 111.192 904.972 117.315 908.088C118.141 908.508 118.848 907.49 118.122 906.89C112.853 902.535 106.537 899.153 100.708 895.604C94.7643 891.985 88.7708 888.225 82.4666 885.261C81.7087 884.905 81.1566 886.115 81.827 886.556Z" fill="#292827"/>
<path d="M90.6803 914.24C89.842 913.611 88.9294 912.973 87.9657 912.477C89.5183 911.406 91.0835 910.351 92.6992 909.365C92.3509 911.129 91.8013 912.88 91.1993 914.623C91.0217 914.493 90.8465 914.365 90.6803 914.24ZM93.465 916.573C93.6866 915.83 93.9088 915.087 94.1384 914.349C94.9103 911.866 95.7203 909.427 95.853 906.815C95.9045 905.79 94.7712 904.977 93.831 905.484C89.0276 908.073 83.3859 911.067 79.654 915.119C78.8089 916.037 79.7059 917.798 80.9595 917.071C82.5358 916.158 84.0516 915.156 85.5539 914.132C86.8047 915.169 88.2215 916.014 89.5044 917.012C89.701 917.166 89.9171 917.377 90.1462 917.61C89.5993 919.168 89.085 920.721 88.7159 922.27C88.3098 923.977 90.6729 924.818 91.3209 923.146C91.8006 921.91 92.2156 920.646 92.6122 919.374C92.7441 919.388 92.8763 919.388 93.0087 919.362C93.8949 919.183 94.4145 918.15 93.992 917.339C93.8514 917.069 93.6679 916.817 93.465 916.573Z" fill="#292827"/>
<path d="M106.77 919.424C105.704 920.38 103.985 920.168 102.67 920.15C101.741 920.138 100.79 920.196 99.8846 920.037C101.222 918.058 102.813 916.167 103.934 914.074C106.557 914.822 109.632 916.856 106.77 919.424ZM103.135 926.667C101.366 928.475 98.9037 926.687 96.86 925.169C97.3519 924.473 97.7905 923.691 98.2115 922.908C100.817 923.437 105.422 924.329 103.135 926.667ZM109.827 914.329C108.27 912.61 104.955 910.789 102.6 911.553C101.861 911.792 101.595 912.482 101.778 913.042C100.042 914.811 98.6989 917.063 97.3506 919.103C96.5274 920.35 95.1357 922.009 94.3906 923.629C93.2484 923.383 92.6298 924.931 93.2577 925.808C95.9404 929.556 102.911 932.562 106.05 927.754C107.299 925.842 106.88 924.186 105.669 922.923C107.197 922.642 108.547 921.995 109.733 920.575C111.066 918.979 111.272 915.926 109.827 914.329Z" fill="#292827"/>
<path d="M48.0261 859.898C48.4463 853.721 44.3609 847.673 39.1024 844.725C32.5932 841.077 26.3572 844.351 23.9438 851.051C21.2566 858.51 25.0427 866.337 29.2383 872.351C31.5695 875.692 34.2566 878.796 36.9941 881.807C39.329 884.376 40.952 887.425 44.8379 887.071C46.5311 886.916 48.3894 884.924 49.5709 883.869C51.8169 881.862 53.8708 879.631 55.8658 877.379C59.4404 873.343 63.1088 869.025 65.3533 864.077C68.1822 857.841 66.11 850.915 59.1472 849.058C52.7806 847.362 46.3493 852.189 45.5261 858.498C45.3484 859.862 47.3353 860.456 48.0382 859.342C50.6735 855.167 55.0183 850.874 60.2053 853.901C64.6329 856.484 61.9307 862.307 59.8809 865.545C55.9517 871.751 50.6806 877.934 44.864 882.451C43.0728 883.841 41.2293 880.364 40.0928 879.102C38.2537 877.059 36.4606 874.989 34.7465 872.839C31.2486 868.454 28.1563 863.744 27.3131 858.098C26.8611 855.073 27.6006 851.88 29.2065 849.308C31.0742 846.317 33.8604 846.082 36.9259 847.208C42.4486 849.237 44.9824 854.626 45.6752 860.074C45.85 861.444 47.9368 861.208 48.0261 859.898Z" fill="#292827"/>
<path d="M100.878 432.383C94.1878 430.698 88.1438 427.02 83.2072 422.251C80.2615 419.404 77.9231 415.834 76.5728 411.97C75.3629 408.506 74.5979 405.31 71.5266 403.023C71.393 402.877 71.2433 402.737 71.0611 402.614C68.0336 400.571 66.1447 399.746 67.2221 395.733C68.0504 392.65 70.5151 387.239 74.4552 388.936C77.019 390.041 79.1332 391.77 81.9727 392.18C85.9526 392.757 90.4197 391.076 94.4332 390.884C102.877 390.479 111.687 395.057 118.109 400.169C123.439 404.411 128.105 410.42 128.65 417.417C129.132 423.606 125.086 429.292 119.594 431.796C113.769 434.453 106.916 433.902 100.878 432.383ZM53.8006 397.134C54.4372 397.204 55.0672 397.398 55.6831 397.647C57.4127 398.767 60.3658 400.328 59.6677 402.154C59.4404 402.752 59.0367 403.237 58.5389 403.592C57.2442 403.965 55.6009 403.403 54.0965 402.647C53.5298 402.237 52.9972 401.781 52.4993 401.325C50.7997 399.77 50.9302 396.817 53.8006 397.134ZM55.3815 389.411C56.2477 387.574 56.8517 384.033 59.3546 385.176C61.4922 386.152 63.4959 387.466 65.486 388.729C64.4358 390.264 63.5879 392.032 62.9546 393.815C62.8643 394.07 62.7778 394.333 62.6968 394.601C61.5723 394.136 60.3381 393.833 59.2488 393.367C58.3227 392.97 57.434 392.492 56.548 392.015C55.0803 391.225 54.6342 390.994 55.3815 389.411ZM14.0878 351.972C9.43154 343.061 6.10709 333.385 6.05298 323.246C6.01869 316.739 7.94738 309.167 13.3616 305.213C13.2525 307.041 13.3505 308.886 13.6416 310.701C4.33033 322.907 12.3685 341.266 18.6834 352.943C26.3384 367.097 38.6224 376.91 52.393 384.69C51.9735 385.575 51.6056 386.46 51.2495 387.213C51.2275 387.259 51.2096 387.303 51.1883 387.349C35.5539 378.727 22.4643 368.003 14.0878 351.972ZM38.8079 294.487C50.124 299.019 59.8559 307.275 69.7385 314.212C82.4835 323.157 95.7273 332.295 110.44 337.703C110.51 337.729 110.578 337.741 110.646 337.755C110.419 338.499 110.204 339.248 109.995 339.997C102.438 337.152 95.1711 333.986 88.0518 330.073C80.6332 325.996 73.6173 321.258 66.6168 316.512C60.7091 312.508 54.9264 308.318 48.9783 304.374C45.0897 301.795 41.0744 299.125 36.6108 297.652C32.6469 296.343 26.8891 296.806 24.227 300.382C21.416 304.159 22.6877 309.411 24.227 313.429C28.8187 325.411 39.6617 333.782 49.8574 340.888C51.7841 342.23 53.7539 343.51 55.7306 344.778C55.1323 345.491 54.6127 346.285 54.2041 347.187C54.0743 347.473 53.9709 347.757 53.879 348.039C41.022 340.258 28.923 330.521 21.0591 317.536C17.0899 310.982 16.5435 301.723 21.8338 295.719C26.2419 290.716 33.4146 292.328 38.8079 294.487ZM125.295 302.978C125.718 298.746 129.497 295.173 132.858 292.995C141.441 287.434 153.173 291.664 161.499 295.536C167.75 298.442 174.059 301.21 180.039 304.659C183.12 306.436 186.049 308.446 188.668 310.86C188.912 311.084 189.139 311.313 189.359 311.543C187.152 310.461 184.736 309.757 182.382 309.349C172.844 307.695 164.712 313.548 156.347 316.976C152.442 318.576 148.21 319.507 143.995 318.937C139.271 318.3 134.992 315.675 131.052 313.162C127.617 310.972 124.872 307.209 125.295 302.978ZM178.955 376.389C174.64 382.389 168.339 390.358 160.575 391.677C153.451 392.886 145.643 390.378 138.951 388.186C132.338 386.02 125.468 383.405 119.469 379.851C111.823 375.321 110.685 366.273 111.339 358.205C112.55 343.261 117.452 327.572 125.876 315.079C131.169 320.315 139.917 323.803 147.186 323.794C156.318 323.783 163.853 317.84 172.154 314.992C175.336 313.9 178.626 313.558 181.799 314.032C176.764 315.725 172.512 320.335 169.209 324.161C164.894 329.158 161.31 334.813 158.131 340.584C152.328 351.122 147.166 363.279 146.441 375.427C146.22 379.128 146.75 383.143 149.376 385.941C154.976 391.911 164.367 386.448 169.121 382.396C170.362 381.339 168.659 379.574 167.372 380.308C165.905 381.144 163.483 382.351 160.949 383.127C167.054 377.194 174.552 367.217 180.255 353.373C184.948 341.98 185.439 330.479 183.363 322.956C182.984 321.583 182.428 320.176 181.583 319.255C181.591 319.25 181.598 319.245 181.606 319.24C184.152 317.624 187.623 317.586 190.311 318.865C191.485 319.424 192.379 320.252 193.069 321.243C194.39 323.701 195.023 326.574 195.226 329.412C195.234 329.541 195.246 329.67 195.252 329.8C195.258 329.9 195.261 330 195.266 330.099C195.286 330.562 195.297 331.025 195.303 331.489C195.306 332.008 195.301 332.523 195.28 333.028C195.277 333.111 195.287 333.186 195.296 333.264C194.965 348.678 187.62 364.34 178.955 376.389ZM97.235 342.401C94.513 340.101 91.1713 338.587 87.6629 337.929C77.928 333.025 68.6369 327.297 59.4535 321.093C53.4382 317.03 47.4717 312.866 41.2569 309.111C36.7032 306.362 32.609 304.498 27.3721 304.47C27.4306 304.253 27.498 304.037 27.584 303.829C29.1011 300.14 35.1528 301.881 37.8182 303.147C42.3277 305.287 46.469 308.254 50.5992 311.03C56.5949 315.061 62.512 319.213 68.5955 323.112C81.0001 331.062 94.726 339.351 109.146 343.234C108.866 344.386 108.6 345.541 108.361 346.704C104.569 345.405 100.865 343.964 97.235 342.401ZM72.2588 372.201C66.8918 368.296 65.1375 360.437 67.5232 354.381C67.5763 354.3 67.6345 354.227 67.681 354.133C71.9469 345.696 81.9891 343.349 89.8433 348.258C98.1086 353.425 97.5761 364.382 91.3831 370.876C91.1661 371.104 90.9339 371.31 90.7025 371.518C90.371 371.786 90.037 372.045 89.7005 372.29C89.5704 372.384 89.4611 372.487 89.3587 372.593C84.3426 376.024 77.155 375.763 72.2588 372.201ZM79.6061 338.383C75.7282 339.649 72.2169 342.261 69.3009 344.98C67.1353 343.576 63.3551 340.265 60.4924 341.424C60.2217 341.533 59.9617 341.655 59.7018 341.778C49.0837 335.015 37.1317 327.273 30.7046 316.152C29.6481 314.324 28.2539 311.732 27.565 309.145C32.3964 309.209 36.0332 311.285 40.2493 313.816C46.6296 317.647 52.7436 321.917 59.0174 325.919C65.6355 330.14 72.4984 334.487 79.6061 338.383ZM58.3113 349.661C58.4764 348.464 60.6917 345.329 62.2996 346.209C63.531 346.882 64.7169 347.638 65.9261 348.352C65.0207 349.45 64.2261 350.651 63.5705 351.948C63.4428 352.201 63.3773 352.447 63.3394 352.687C63.0456 353.404 62.7918 354.136 62.5888 354.882C60.3741 353.591 57.9377 352.378 58.3113 349.661ZM133.205 420.25C135.029 404.182 117.815 391.924 104.438 387.749C99.9277 386.342 95.2533 385.978 90.5819 386.549C88.1195 386.849 85.6886 387.328 83.2189 387.583C81.1842 387.794 79.0799 386.125 77.3894 385.201C73.7493 383.212 70.6723 383.82 68.2277 385.729C65.4776 383.388 62.0903 380.896 58.5457 380.148C57.1516 379.853 56.0461 380.183 55.1365 380.856C42.7747 373.94 31.7002 365.486 24.2335 353.209C20.238 346.641 17.0497 339.419 15.2288 331.946C14.0776 327.225 13.5955 321.559 15.4423 316.879C15.5044 317.022 15.5586 317.168 15.6233 317.31C18.6099 323.854 23.7613 329.675 28.7774 334.733C35.3892 341.398 43.1052 346.941 51.0886 351.837C51.8371 352.292 52.5894 352.74 53.3456 353.18C53.676 353.375 53.9988 353.478 54.3063 353.507C55.7172 356.378 58.815 358.634 61.9063 359.714C61.7718 366.246 64.7113 372.871 70.3046 376.49C76.9127 380.765 85.2168 380.566 91.5709 376.538C91.7819 376.466 91.9954 376.368 92.2105 376.212C101.085 369.771 107.041 358.293 101.817 348.176C103.784 348.796 105.77 349.335 107.77 349.806C107.428 351.772 107.143 353.748 106.914 355.733C106.09 362.889 106.328 369.883 109.744 376.398C113.408 383.383 121.466 386.371 128.338 389.199C140.228 394.09 156.366 400.653 168.493 393.403C175.77 389.053 181.094 381.739 185.694 374.802C191.064 366.703 194.77 357.741 197.492 348.44C200.283 338.902 200.635 329.156 198.38 319.47C196.68 312.17 192.799 307.676 186.786 303.411C180.829 299.186 174.053 296.146 167.435 293.125C159.808 289.643 152.362 286.305 143.864 285.8C129.892 284.968 114.688 299.11 123.288 311.98C118.233 319.009 114.349 326.749 111.574 334.888C111.551 334.875 111.534 334.859 111.51 334.847C103.208 330.753 95.1139 326.572 87.3313 321.535C80.2858 316.974 73.5924 311.944 66.8857 306.906C57.1013 299.557 46.5384 290.954 34.3192 288.24C27.7066 286.771 20.788 288.686 16.8685 294.474C15.8491 295.98 15.0697 297.611 14.4962 299.31C-4.99522 307.616 1.17909 335.597 8.06438 350.273C11.8336 358.306 16.498 365.715 22.5784 372.206C30.2339 380.38 39.8923 386.54 49.659 391.864C49.9083 392 50.1497 392.073 50.3865 392.117C50.456 392.392 50.5584 392.659 50.6831 392.922C49.7092 393.28 48.7963 393.871 47.9939 394.779C45.6764 397.399 46.5796 401.697 48.7421 404.071C51.3587 406.941 55.9909 409.329 59.9672 408.433C62.4632 407.87 64.3377 406.393 65.2917 404.307C66.4214 405.188 67.69 405.925 68.8743 406.725C68.884 406.732 68.8937 406.735 68.9034 406.741C71.8169 409.429 72.3192 414.296 74.0965 417.767C76.0662 421.611 79.0844 424.924 82.3195 427.738C88.0253 432.701 95.0192 435.98 102.395 437.508C115.372 440.196 131.489 435.35 133.205 420.25Z" fill="#292827"/>
<path d="M81.2228 363.787C81.2357 363.888 81.25 363.989 81.2676 364.091C81.2049 364.086 81.1411 364.087 81.0796 364.093C81.1055 363.993 81.13 363.895 81.1559 363.795C81.1782 363.793 81.2005 363.789 81.2228 363.787ZM83.6164 367.244C83.9802 366.563 83.6858 365.727 83.5561 365.02C83.429 364.326 83.295 363.595 82.9813 362.957C83.694 362.167 83.9918 360.89 83.3851 359.944C83.0793 359.467 82.6433 359.132 82.1494 358.943C82.5551 356.23 81.9146 353.294 81.0169 350.77C80.6776 349.815 79.2048 349.796 78.9851 350.851C78.4615 353.369 77.8092 357.011 78.6183 359.781C78.3038 360.253 78.1193 360.835 78.12 361.341C78.1221 362.05 78.4299 362.627 78.9095 363.05C78.6051 364.315 78.3174 365.588 78.041 366.857C77.8811 367.591 78.4447 368.211 79.1691 368.22C80.0173 368.231 80.8501 368.182 81.6914 368.073C82.3652 367.986 83.2526 367.926 83.6164 367.244Z" fill="#292827"/>
<path d="M88.7385 365.586C88.911 366.21 89.5533 366.54 90.0714 366.856C90.5991 367.177 91.1649 367.496 91.7897 367.526C92.5492 367.563 92.8403 366.526 92.3291 366.06C91.9342 365.699 91.3824 365.525 90.9201 365.26C90.4236 364.976 90.0349 364.601 89.4328 364.594C88.9198 364.588 88.6128 365.131 88.7385 365.586Z" fill="#292827"/>
<path d="M75.3089 370.923C75.497 370.637 75.492 370.427 75.645 370.161C75.7885 369.912 75.9648 369.669 75.9892 369.381C76.124 368.866 75.6719 368.298 75.1025 368.497C75.0885 368.503 75.0731 368.508 75.0583 368.513C74.6561 368.576 74.3382 368.864 74.1005 369.22C73.8539 369.589 73.5949 370.093 73.6519 370.546C73.7659 371.439 74.8179 371.669 75.3089 370.923Z" fill="#292827"/>
<path d="M72.5616 355.924C72.3869 355.33 71.7886 355.079 71.3001 354.775C70.8626 354.502 70.3634 354.132 69.848 354.051C69.1814 353.945 68.4801 354.679 68.9527 355.318C69.2926 355.78 69.8125 356.038 70.2906 356.34C70.5108 356.479 70.7381 356.608 70.9629 356.741C71.3323 356.959 71.619 357.01 72.0424 356.93C72.4785 356.848 72.6733 356.302 72.5616 355.924Z" fill="#292827"/>
<path d="M84.5776 351.533C84.4876 351.626 84.4133 351.738 84.3691 351.888C84.2043 352.436 84.5973 352.85 85.0791 353.007C85.3641 353.1 85.7684 352.971 85.9533 352.738C86.3129 352.288 86.6065 351.768 86.9059 351.276C87.222 350.758 87.559 350.255 87.6993 349.656C87.8363 349.076 87.1249 348.481 86.6044 348.882C86.109 349.264 85.7864 349.754 85.4368 350.266C85.1578 350.676 84.8303 351.096 84.5776 351.533Z" fill="#292827"/>
<path d="M88.7439 356.099C88.4189 356.531 88.4965 357.328 89.151 357.421C89.6155 357.487 89.9692 357.347 90.4019 357.212C90.8313 357.078 91.2406 356.969 91.6432 356.762C92.2368 356.457 92.0252 355.486 91.4038 355.371C90.9179 355.28 90.4674 355.344 89.9904 355.459C89.5478 355.566 89.0269 355.722 88.7439 356.099Z" fill="#292827"/>
<path d="M89.1803 360.173C88.7202 360.471 88.6962 361.258 89.2337 361.501C89.803 361.756 90.327 361.677 90.9217 361.569C91.4491 361.473 92.0035 361.376 92.4275 361.026C92.8707 360.663 92.9252 359.738 92.1906 359.644C91.6771 359.579 91.2191 359.676 90.715 359.774C90.1792 359.878 89.6551 359.868 89.1803 360.173Z" fill="#292827"/>
<path d="M84.688 369.297C84.6804 369.582 84.7285 369.847 84.7554 370.129C84.7951 370.54 84.7836 370.914 85.1436 371.199C85.4221 371.42 85.8726 371.541 86.1832 371.291C86.6135 370.945 86.698 370.582 86.6509 370.053C86.6114 369.594 86.5178 369.192 86.2797 368.797C85.8103 368.019 84.708 368.479 84.688 369.297Z" fill="#292827"/>
<path d="M82.2795 371.144C82.3731 370.567 82.3138 370.037 81.9107 369.591C81.5744 369.219 80.9657 369.402 80.7435 369.789C80.5753 370.082 80.5509 370.404 80.4885 370.727C80.4592 370.877 80.4073 371.021 80.3539 371.164C80.2515 371.436 80.2646 371.663 80.3189 371.947C80.4295 372.536 81.1509 372.619 81.5844 372.404C82.0426 372.176 82.2033 371.613 82.2795 371.144Z" fill="#292827"/>
<path d="M72.4985 360.907C72.1418 360.499 71.5637 360.565 71.0706 360.55C70.6007 360.535 70.0962 360.489 69.6934 360.776C69.3012 361.056 69.1613 361.698 69.583 362.035C70.009 362.376 70.4802 362.385 71.0044 362.399C71.5715 362.412 72.112 362.493 72.5444 362.045C72.873 361.705 72.7826 361.231 72.4985 360.907Z" fill="#292827"/>
<path d="M72.4729 365.991C72.9336 365.878 73.1736 365.327 73.0368 364.898C72.8805 364.407 72.4087 364.244 71.9436 364.334C71.2615 364.466 70.3151 364.732 69.9806 365.399C69.6981 365.957 70.1094 366.59 70.7266 366.586C71.0553 366.584 71.2976 366.427 71.5866 366.299C71.8755 366.17 72.1662 366.067 72.4729 365.991Z" fill="#292827"/>
<path d="M164.349 308.767C165.087 308.291 164.521 306.954 163.676 307.335C157.165 310.27 151.177 313.016 143.818 312.237C140.561 311.893 137.361 310.617 134.939 308.407C131.394 305.174 132.968 300.944 135.135 297.564C135.708 296.67 134.299 295.688 133.629 296.496C131.142 299.494 129.612 302.164 130.517 306.135C131.355 309.818 135.063 312.241 138.312 313.526C146.709 316.845 157.136 313.424 164.349 308.767Z" fill="#292827"/>
<path d="M127.132 380.296C124.122 377.794 120.96 375.325 118.772 372.036C116.075 367.982 116.401 362.038 116.458 357.356C116.553 349.658 119.179 342.845 121.157 335.509C121.366 334.737 120.151 334.263 119.833 335.013C116.676 342.438 114.659 350.237 114.354 358.306C114.181 362.887 113.825 368.378 116.178 372.531C118.509 376.643 122.089 379.409 126.206 381.6C127.004 382.023 127.848 380.89 127.132 380.296Z" fill="#292827"/>
<path d="M186.049 347.044C183.442 357.136 179.127 365.907 173.575 374.67C173.038 375.518 174.333 376.39 174.982 375.668C181.902 367.972 186.187 357.589 187.537 347.391C187.664 346.429 186.298 346.076 186.049 347.044Z" fill="#292827"/>
<path d="M1016.08 146.185C1013.63 144.024 1014.26 142.619 1016.11 140.273C1018.34 137.438 1020.99 134.942 1023.69 132.568C1026.45 130.147 1029.4 127.889 1032.37 125.731C1034.81 123.956 1039.01 128.13 1040.86 129.507C1043.52 131.487 1049.58 135.341 1045.22 138.556C1041.72 141.141 1038.4 143.896 1035.16 146.808C1033.92 147.932 1032.71 149.096 1031.5 150.259C1030.61 151.111 1028.08 154.813 1026.6 154.365C1022.79 153.205 1019.15 148.654 1016.08 146.185ZM1002.7 110.34C1006.33 106.465 1010.85 102.698 1015.71 100.495C1019.52 98.7695 1021.44 100.212 1024.49 102.439C1030.03 106.479 1034.89 111.369 1040.05 115.866C1048.12 122.905 1056.11 129.432 1063.25 137.505C1071.07 146.345 1078.03 155.927 1084.69 165.658C1089.51 172.714 1093.71 179.61 1097.01 187.518C1098.52 191.127 1100.02 194.923 1101.17 198.806C1099.24 195.911 1097 193.219 1094.84 190.5C1091.52 186.316 1088.57 181.474 1084.81 177.701C1083.81 176.698 1082.12 178.052 1082.61 179.274C1084.16 183.123 1087.01 186.444 1089.4 189.803C1091.73 193.073 1093.93 196.482 1095.93 199.958C1099 205.283 1105.33 215.926 1101.81 222.332C1099.26 216.392 1095.61 210.759 1091.91 205.504C1089.89 202.632 1087.61 199.948 1085.43 197.194C1082.77 193.826 1080.53 190.155 1077.88 186.794C1076.94 185.602 1075.12 186.588 1075.56 188.026C1077.13 193.154 1080.76 197.565 1083.93 201.802C1087.23 206.216 1090.26 210.68 1092.95 215.5C1095.28 219.691 1097.59 224.178 1098.42 228.936C1099.07 232.61 1099.57 239.612 1094.21 238.217C1093.29 234.35 1091.98 230.684 1090.85 227.801C1086.5 216.726 1078.62 207.327 1071.54 197.921C1070.19 196.129 1067.4 198.122 1068.71 199.951C1075.14 208.926 1081.03 218.266 1085.3 228.488C1087.34 233.38 1088.81 238.369 1089.46 243.637C1089.79 246.27 1089.82 248.856 1089.3 251.46C1088.21 256.924 1083.25 255.226 1080.76 251.957C1077.36 247.486 1075.16 241.769 1072.16 236.99C1068.7 231.466 1064.76 226.245 1060.57 221.254C1056.13 215.966 1048.42 205.751 1040.63 210.07C1041.59 208.422 1042.94 206.988 1044.89 205.727C1045.81 205.13 1045 203.681 1044 204.051C1039.4 205.76 1037.43 209.588 1036.59 214.18C1036.11 216.771 1036.06 219.464 1036.04 222.092C1036.04 222.536 1036.02 223.037 1036.01 223.562C1035.69 228.997 1033.9 238.263 1026.74 235.592C1021.39 233.594 1021.2 226.357 1021.53 221.725C1021.92 216.253 1022.52 210.913 1022.33 205.412C1021.97 194.972 1019.06 184.707 1013.65 175.769C1009.99 169.726 1004.76 164.498 1000.21 159.142C995.821 153.982 988.688 147.561 987.554 140.557C986.744 135.562 990.321 129.04 992.465 124.708C993.896 121.815 995.621 119.089 997.54 116.504C1003.37 122.348 1010.11 127.45 1017.5 130.914C1011.53 136.271 1005.09 143.641 1012.7 150.37C1013.85 151.301 1015 152.221 1016.18 153.125C1017.93 154.48 1020.38 155.167 1021.87 156.832C1023.03 158.127 1025.09 159.222 1026.84 159.237C1029.54 159.26 1031.03 157.685 1032.92 155.959C1035.4 153.683 1037.84 151.36 1040.39 149.153C1042.94 146.946 1045.58 144.829 1048.24 142.759C1050.03 141.367 1052.08 140.017 1052.48 137.596C1053.32 132.501 1047.55 128.164 1044.2 125.368C1041.25 122.905 1036.75 119.376 1032.62 119.91C1030.59 120.172 1028.86 121.646 1027.3 122.844C1025.08 124.554 1022.9 126.315 1020.76 128.117C1013.14 123.942 1006.34 118.862 1000.36 112.974C1001.12 112.079 1001.9 111.198 1002.7 110.34ZM980.163 84.3101C977.965 79.7165 976.219 74.9204 974.818 70.0292C973.406 65.102 972.157 59.5703 973.925 54.5807C975.957 48.8489 981.785 47.6267 986.412 51.0261C990.751 54.2145 991.834 60.4172 992.845 65.3259C992.848 65.3254 992.85 65.3247 992.854 65.3241C992.895 65.5153 992.923 65.7066 992.974 65.8972C993.621 68.3663 997.88 67.3995 997.342 64.907C997.292 64.6751 997.241 64.4413 997.19 64.2075C995.725 58.0208 1002.91 53.2858 1008.41 53.9843C1016.79 55.05 1019.01 66.4186 1016.88 72.983C1014.14 81.4403 1005.72 86.9622 997.964 90.2843C993.924 92.0148 989.647 93.1641 985.292 93.7875C983.448 90.7412 981.731 87.5857 980.163 84.3101ZM988.22 98.3759C991.309 97.8196 994.406 97.0045 997.499 95.9079C1013.25 90.3222 1029.83 73.7666 1019.23 56.4362C1015.44 50.2471 1008.01 47.841 1001.37 50.481C998.653 51.5629 996.373 53.4117 994.814 55.6973C993.842 53.2604 992.537 50.9931 990.638 49.1531C987.512 46.1226 982.794 43.7762 978.353 45.1517C966.22 48.9052 968.619 63.4628 971.284 72.7933C973.421 80.2763 976.668 87.4765 980.632 94.2537C978.287 94.3876 975.935 94.3808 973.601 94.2294C955.19 93.0334 942.032 80.7256 926.975 71.6578C914.497 64.1421 898.829 58.9791 885.361 67.0196C883.695 68.0143 885.19 70.7677 886.951 70.0162C907.35 61.3148 926.398 77.5915 942.374 87.9746C955.045 96.2094 969.164 100.408 983.582 99.0166C985.753 102.346 988.082 105.561 990.526 108.634C991.621 110.014 992.77 111.372 993.959 112.708C988.326 119.971 983.875 128.935 982.408 137.883C981.193 145.304 987.135 151.747 991.472 157.021C996.312 162.906 1001.42 168.571 1006.19 174.515C1012.51 182.394 1015.64 192.056 1016.72 202.001C1017.31 207.419 1017.06 212.842 1016.5 218.248C1015.97 223.266 1015.64 228.383 1017.61 233.146C1020.77 240.78 1030.91 244.543 1036.87 237.56C1040.01 233.89 1041.03 229.579 1041.3 224.849C1041.44 222.391 1041.35 219.95 1041.71 217.507C1042.46 212.485 1046.74 214.802 1049.16 216.795C1053.65 220.499 1057.39 225.649 1060.92 230.243C1064.9 235.413 1068.43 240.912 1071.66 246.577C1074.16 250.982 1075.98 256.039 1080.35 258.968C1083.68 261.198 1088.42 261.276 1091.37 258.371C1095.03 254.777 1095.78 249.418 1095.2 243.904C1103.19 244.869 1104.62 235.82 1103.54 228.529C1108.03 224.314 1108.61 218.871 1107.48 213.437C1107.6 213.201 1107.69 212.931 1107.73 212.61C1108.48 205.556 1106.06 198.25 1103.76 191.684C1101.23 184.456 1098.05 177.293 1094.16 170.693C1088.49 161.088 1081.65 151.96 1074.77 143.193C1067.68 134.142 1059.88 125.604 1051.19 118.054C1045.72 113.3 1040.05 108.78 1034.59 104.011C1030.71 100.634 1025.05 94.5977 1019.5 94.4511C1010.83 94.2222 1002.25 103.06 996.812 109.271C993.709 105.862 990.838 102.232 988.22 98.3759Z" fill="#292827"/>
<path d="M1030.29 146.615C1032.55 143.787 1035.09 141.605 1037.94 139.398C1038.68 138.819 1038.04 137.404 1037.12 137.862C1033.77 139.534 1030.91 142.361 1028.92 145.505C1028.32 146.441 1029.56 147.527 1030.29 146.615Z" fill="#292827"/>
<path d="M1029.02 137.732C1031.35 135.888 1033.92 133.94 1035.83 131.646C1036.48 130.859 1035.44 129.818 1034.62 130.368C1032.15 132.027 1029.95 134.396 1027.88 136.525C1027.22 137.206 1028.29 138.313 1029.02 137.732Z" fill="#292827"/>
</svg>
