<svg width="189" height="61" viewBox="0 0 189 61" fill="none" xmlns="http://www.w3.org/2000/svg">
<rect width="189" height="60.9677" rx="18.2903" fill="#6CDA85"/>
<path d="M68.3163 30.9142H72.2131L70.296 24.871L68.3163 30.9142ZM68.5143 21.3597H72.1402L77.5791 36.7178H74.099L73.1092 33.5607H67.4515L66.3888 36.7178H63.0337L68.5143 21.3597ZM79.2849 38.8954L79.66 38.9162C79.9518 38.9301 80.2296 38.9197 80.4936 38.885C80.7575 38.8503 80.9798 38.7704 81.1604 38.6453C81.3341 38.5273 81.4938 38.2807 81.6397 37.9056C81.7925 37.5305 81.855 37.3013 81.8272 37.2179L77.6595 25.3607H80.9624L83.4422 33.7379L85.7866 25.3607H88.9436L85.0468 36.5302C84.2966 38.6835 83.7027 40.0172 83.2651 40.5312C82.8275 41.0522 81.9523 41.3127 80.6394 41.3127C80.3755 41.3127 80.1636 41.3092 80.0039 41.3023C79.8441 41.3023 79.6044 41.2918 79.2849 41.271V38.8954ZM93.9836 25.3607V32.2062C93.9836 32.8522 94.06 33.3384 94.2129 33.6649C94.4838 34.2415 95.0151 34.5297 95.807 34.5297C96.8211 34.5297 97.5158 34.1199 97.8909 33.3002C98.0854 32.8557 98.1826 32.2687 98.1826 31.5394V25.3607H101.194V36.7178H98.3076V35.1132C98.2798 35.1479 98.2104 35.2521 98.0992 35.4258C97.9881 35.5994 97.8561 35.7523 97.7033 35.8842C97.2379 36.301 96.7864 36.5858 96.3488 36.7386C95.9181 36.8914 95.4111 36.9678 94.8276 36.9678C93.1466 36.9678 92.0144 36.3635 91.4309 35.1549C91.1044 34.488 90.9412 33.5052 90.9412 32.2062V25.3607H93.9836ZM110.558 25.0898C110.613 25.0898 110.659 25.0933 110.693 25.1003C110.735 25.1003 110.822 25.1037 110.954 25.1107V28.1531C110.766 28.1323 110.599 28.1184 110.454 28.1114C110.308 28.1045 110.19 28.101 110.099 28.101C108.905 28.101 108.102 28.49 107.692 29.268C107.463 29.7056 107.349 30.3794 107.349 31.2893V36.7178H104.358V25.3607H107.192V27.3404C107.651 26.5833 108.05 26.0658 108.391 25.7879C108.946 25.3225 109.669 25.0898 110.558 25.0898ZM129.703 21.3597H134.318V36.7178H131.328V26.3297C131.328 26.0311 131.332 25.6143 131.338 25.0794C131.345 24.5376 131.349 24.1209 131.349 23.8291L128.442 36.7178H125.327L122.44 23.8291C122.44 24.1209 122.444 24.5376 122.451 25.0794C122.458 25.6143 122.461 26.0311 122.461 26.3297V36.7178H119.471V21.3597H124.139L126.931 33.4357L129.703 21.3597ZM140.432 24.0062H137.42V21.266H140.432V24.0062ZM137.42 25.3607H140.432V36.7178H137.42V25.3607ZM142.471 27.5801V25.4649H144.055V22.2975H146.993V25.4649H148.837V27.5801H146.993V33.5816C146.993 34.047 147.052 34.3387 147.17 34.4568C147.288 34.5679 147.649 34.6235 148.254 34.6235C148.344 34.6235 148.438 34.6235 148.535 34.6235C148.639 34.6165 148.74 34.6096 148.837 34.6027V36.822L147.43 36.8741C146.027 36.9227 145.069 36.6796 144.555 36.1447C144.221 35.8043 144.055 35.2799 144.055 34.5714V27.5801H142.471ZM157.232 25.0898C157.288 25.0898 157.333 25.0933 157.368 25.1003C157.409 25.1003 157.496 25.1037 157.628 25.1107V28.1531C157.44 28.1323 157.274 28.1184 157.128 28.1114C156.982 28.1045 156.864 28.101 156.774 28.101C155.579 28.101 154.777 28.49 154.367 29.268C154.138 29.7056 154.023 30.3794 154.023 31.2893V36.7178H151.033V25.3607H153.867V27.3404C154.325 26.5833 154.724 26.0658 155.065 25.7879C155.621 25.3225 156.343 25.0898 157.232 25.0898ZM165.961 31.1955C165.773 31.3136 165.582 31.4109 165.387 31.4873C165.2 31.5568 164.939 31.6227 164.606 31.6853L163.939 31.8103C163.314 31.9214 162.866 32.0569 162.595 32.2166C162.137 32.4875 161.907 32.9078 161.907 33.4774C161.907 33.9844 162.046 34.3526 162.324 34.5818C162.609 34.8041 162.953 34.9152 163.356 34.9152C163.995 34.9152 164.582 34.7277 165.117 34.3526C165.658 33.9775 165.94 33.2933 165.961 32.3V31.1955ZM164.158 29.8098C164.707 29.7403 165.099 29.6535 165.335 29.5493C165.759 29.3687 165.971 29.0874 165.971 28.7053C165.971 28.2399 165.808 27.9204 165.481 27.7468C165.162 27.5662 164.689 27.4759 164.064 27.4759C163.363 27.4759 162.866 27.6495 162.574 27.9968C162.366 28.2538 162.227 28.6011 162.157 29.0388H159.292C159.355 28.0454 159.633 27.2293 160.126 26.5902C160.911 25.59 162.258 25.0898 164.168 25.0898C165.412 25.0898 166.516 25.3364 167.482 25.8296C168.447 26.3228 168.93 27.2536 168.93 28.622V33.8316C168.93 34.1928 168.937 34.6304 168.951 35.1445C168.972 35.5334 169.031 35.7974 169.128 35.9363C169.225 36.0753 169.371 36.1899 169.566 36.2802V36.7178H166.336C166.245 36.4885 166.183 36.2732 166.148 36.0718C166.113 35.8703 166.086 35.6411 166.065 35.3841C165.655 35.8287 165.183 36.2072 164.648 36.5198C164.009 36.888 163.286 37.072 162.48 37.072C161.452 37.072 160.602 36.7803 159.928 36.1968C159.261 35.6064 158.927 34.7728 158.927 33.6962C158.927 32.3 159.466 31.2893 160.542 30.6642C161.133 30.3238 162.001 30.0807 163.147 29.9348L164.158 29.8098Z" fill="#121417"/>
<path d="M28.8616 24.3189C28.1284 24.3189 27.534 24.9132 27.534 25.6464C27.534 26.3796 28.1284 26.9739 28.8616 26.9739V24.3189ZM41.2518 26.9739C41.9849 26.9739 42.5793 26.3796 42.5793 25.6464C42.5793 24.9132 41.9849 24.3189 41.2518 24.3189V26.9739ZM30.4103 28.8484C29.6772 28.8484 29.0828 29.4428 29.0828 30.1759C29.0828 30.909 29.6772 31.5034 30.4103 31.5034V28.8484ZM39.703 31.5034C40.4361 31.5034 41.0305 30.909 41.0305 30.1759C41.0305 29.4428 40.4361 28.8484 39.703 28.8484V31.5034ZM29.1501 18.0937V16.7661L29.1404 16.7662L29.1501 18.0937ZM40.965 18.0937L40.9751 16.7661H40.965V18.0937ZM47.4469 24.6729L46.1193 24.6631V24.6729H47.4469ZM47.4469 32.661H46.1193V32.6708L47.4469 32.661ZM40.9633 39.2402V40.5678H40.973L40.9633 39.2402ZM29.1501 39.2402V37.9127C28.9228 37.9127 28.6993 37.9711 28.501 38.0823L29.1501 39.2402ZM22.6664 42.8741H21.3389C21.3389 43.3453 21.5888 43.7812 21.9954 44.0195C22.402 44.2577 22.9044 44.2625 23.3155 44.0321L22.6664 42.8741ZM22.6664 24.6729H23.994L23.9939 24.6631L22.6664 24.6729ZM28.8616 26.9739H41.2518V24.3189H28.8616V26.9739ZM30.4103 31.5034H39.703V28.8484H30.4103V31.5034ZM29.1501 19.4212H40.965V16.7661L29.1501 16.7661V19.4212ZM40.9549 19.4212C43.8286 19.4429 46.1404 21.7896 46.1193 24.6631L48.7744 24.6826C48.8063 20.343 45.3147 16.799 40.9751 16.7661L40.9549 19.4212ZM46.1193 24.6729V32.661H48.7744V24.6729H46.1193ZM46.1193 32.6708C46.1294 34.051 45.591 35.3786 44.6221 36.3616L46.5132 38.2253C47.9763 36.7406 48.7896 34.7357 48.7744 32.6513L46.1193 32.6708ZM44.6221 36.3616C43.6533 37.3447 42.3338 37.9026 40.9535 37.9127L40.973 40.5678C43.0572 40.5525 45.0503 39.71 46.5132 38.2253L44.6221 36.3616ZM40.9633 37.9127H29.1501V40.5678H40.9633V37.9127ZM28.501 38.0823L22.0174 41.7161L23.3155 44.0321L29.7991 40.3982L28.501 38.0823ZM23.994 42.8741L23.994 24.6729H21.3389V42.8741H23.994ZM23.9939 24.6631C23.9838 23.283 24.5224 21.9553 25.4911 20.9722L23.6001 19.1086C22.137 20.5932 21.3236 22.5983 21.339 24.6826L23.9939 24.6631ZM25.4911 20.9722C26.4599 19.9892 27.7796 19.4312 29.1597 19.4212L29.1404 16.7662C27.0561 16.7814 25.0631 17.624 23.6001 19.1086L25.4911 20.9722Z" fill="black"/>
</svg>
