<svg width="36" height="36" viewBox="0 0 36 36" fill="none" xmlns="http://www.w3.org/2000/svg">
<path d="M13.9872 33.2364C13.8851 33.2247 13.9333 33.2121 13.9872 33.2364V33.2364ZM35.7401 15.2339C35.3102 11.4175 32.472 11.5263 29.3124 11.5523C28.0824 11.562 26.2854 11.9079 25.0881 11.513C24.2122 11.2242 24.3816 10.6865 24.3701 9.82585C24.3546 8.74427 24.3425 7.66337 24.3144 6.58179C24.2651 4.95616 24.5549 2.68541 23.3961 1.35817C22.216 0.00580215 20.1268 0.0714455 18.4859 0.0391159C16.7944 0.00580597 14.4693 -0.163383 12.8956 0.600014C11.4635 1.29507 11.2219 2.69277 11.1708 4.14604C11.1117 5.79077 11.1812 7.44942 11.2363 9.09346C11.25 9.50536 11.4125 10.1998 11.3017 10.6099C10.9791 11.8036 9.66707 11.593 8.61214 11.6074C5.4927 11.6494 0.383329 10.6814 0.0131279 15.1242C-0.0293448 16.6487 0.0366791 18.1796 0.133104 19.7016C0.198535 20.7422 0.112992 22.18 0.682929 23.1108C2.11552 25.4499 6.87362 24.5915 9.05982 24.5881C9.92132 24.5863 10.8471 24.407 11.2954 25.2807C11.7052 26.0804 11.4475 27.5319 11.4567 28.4247C11.4762 30.2892 11.1502 32.5713 11.8194 34.3523C12.511 36.1955 14.4567 35.9948 16.0093 35.9926C17.3133 35.9901 18.6196 35.9292 19.9202 35.84C20.9533 35.7692 22.2792 35.8274 23.1608 35.2043C25.5243 33.5337 24.2891 28.7935 24.3511 26.478C24.3965 24.7562 24.4487 24.4852 26.0552 24.4604C27.2071 24.4425 28.3573 24.4133 29.5081 24.3793C30.8977 24.3384 32.5851 24.538 33.8851 23.9397C36.6418 22.6708 36.0128 17.6515 35.7401 15.2339Z" fill="#292827"/>
</svg>
